<svg xmlns="http://www.w3.org/2000/svg"><defs><style>.f{display:none;color:#96949C}.f:target{display:inline}.f.blue{color:#1D59F9}</style><symbol id="f-9" viewBox="0 0 1000 1300"><rect width="1000" height="1300" rx="40" style="fill: rgb(255, 255, 255);"></rect><rect width="780" height="780" x="110" y="110" rx="40" style="fill: rgb(229, 231, 239);"></rect><path d="M960 0H40A40 40 0 0 0 0 40v1220a40 40 0 0 0 40 40h920a40 40 0 0 0 40-40V40a40 40 0 0 0-40-40Zm20 1260a20 20 0 0 1-20 20H40a20 20 0 0 1-20-20V40a20 20 0 0 1 20-20h920a20 20 0 0 1 20 20Z" fill="currentColor"></path><path d="M414 244H244v170h170Zm-40 130h-90v-90h90Z" fill="currentColor"></path><path d="M309 309h40v40h-40zM756 244H586v170h170Zm-40 130h-90v-90h90Z" fill="currentColor"></path><path d="M651 309h40v40h-40zM414 586H244v170h170Zm-40 130h-90v-90h90Z" fill="currentColor"></path><path d="M309 651h40v40h-40zM284 441h40v40h-40zM363 521v40h40v-40h-39v-40h-40v40h39zM524 321h40v40h-40zM444 284h40v77h-40zM484 244h40v40h-40zM524 361h-40v40h-40v40h80v-80zM484 561v39h40v39h80v-40h-80v-39h-40v-79h-40v80h40z" fill="currentColor"></path><path d="M524 441h40v80h-40zM644 560h112v-80h-40v-39h-73v40h-39v40h40Zm0-79h72v39h-72ZM716 599h40v80h-40zM564 521h40v40h-40zM604 639h40v40h-40zM644 599h40v40h-40zM684 756v-37h32v-40h-72v77h40zM444 600h40v76h-40zM524 756v-40h39v40h40v-40h-39v-40h-80v80h40zM364 441h80v40h-80zM244 481h40v80h-40zM21 970h958v20H21z" fill="currentColor"></path><text x="50%" y="1156" fill="currentColor" font-family="sans-serif" font-size="100" font-weight="600" text-anchor="middle">¡Escaneame!</text></symbol><symbol id="f-24" viewBox="0 0 1000 1300"><path d="M960 165.66v920H40v-920h920m0-40H40c-22.09 0-40 17.91-40 40v920c0 22.09 17.91 40 40 40h920c22.09 0 40-17.91 40-40v-920c0-22.09-17.91-40-40-40Z" fill="currentColor"></path><rect width="780" height="780" x="110" y="235.66" fill="#e5e7ef" rx="40" ry="40"></rect><path d="M960 1299.66H40c-22.09 0-40-17.91-40-40v-173h1000v173c0 22.09-17.91 40-40 40Z" fill="currentColor"></path><path fill="#585858" d="M357.55 66.01h286.9c37.84 0 68.55 30.72 68.55 68.55v48.87c0 7.3-5.93 13.23-13.23 13.23H302.23c-7.3 0-13.23-5.93-13.23-13.23v-48.87c0-37.84 30.72-68.55 68.55-68.55Z"></path><circle cx="501" cy="66.34" r="66" fill="#585858"></circle><circle cx="501" cy="66.34" r="26.23" fill="#fff"></circle><path d="M414 373.73H244v170h170v-170Zm-40 130h-90v-90h90v90Z" fill="currentColor"></path><path d="M309 438.73h40v40h-40zM756 373.73H586v170h170v-170Zm-40 130h-90v-90h90v90Z" fill="currentColor"></path><path d="M651 438.73h40v40h-40zM414 715.73H244v170h170v-170Zm-40 130h-90v-90h90v90Z" fill="currentColor"></path><path d="M309 780.73h40v40h-40zM284 570.73h40v40h-40zM363 650.73v40h40v-40h-39v-40h-40v40h39zM524 450.73h40v40h-40zM444 413.73h40v77h-40zM484 373.73h40v40h-40zM524 490.73h-40v40h-40v40h80v-80zM484 690.73v39h40v39h80v-40h-80v-39h-40v-79h-40v80h40z" fill="currentColor"></path><path d="M524 570.73h40v80h-40zM644 689.73h112v-80h-40v-39h-73v40h-39v40h40v39Zm0-79h72v39h-72v-39ZM716 728.73h40v80h-40zM564 650.73h40v40h-40zM604 768.73h40v40h-40zM644 728.73h40v40h-40zM684 885.73v-37h32v-40h-72v77h40zM444 729.73h40v76h-40zM524 885.73v-40h39v40h40v-40h-39v-40h-80v80h40zM364 570.73h80v40h-80zM244 610.73h40v80h-40z" fill="currentColor"></path><text x="50%" y="1226" fill="white" font-family="sans-serif" font-size="100" font-weight="600" text-anchor="middle">¡Escaneame!</text></symbol><symbol id="f-7" viewBox="0 0 1000 1300"><rect width="1000" height="1300" rx="40" style="fill: rgb(255, 255, 255);"></rect><rect width="780" height="780" x="110" y="110" rx="40" style="fill: rgb(229, 231, 239);"></rect><path d="M960 0H40A40 40 0 0 0 0 40v1220a40 40 0 0 0 40 40h920a40 40 0 0 0 40-40V40a40 40 0 0 0-40-40ZM557.34 1040l-28.67-38L500 964l-28.67 38-28.67 38H40V40h920v1000Z" fill="currentColor"></path><path d="M414 244H244v170h170Zm-40 130h-90v-90h90Z" fill="currentColor"></path><path d="M309 309h40v40h-40zM586 414h170V244H586Zm40-130h90v90h-90Z" fill="currentColor"></path><path d="M651 309h40v40h-40zM244 756h170V586H244Zm40-130h90v90h-90Z" fill="currentColor"></path><path d="M309 651h40v40h-40zM284 441h40v40h-40zM324 521h39v40h40v-40h-39v-40h-40v40zM524 321h40v40h-40zM444 284h40v77h-40zM484 244h40v40h-40zM484 361v40h-40v40h80v-80h-40zM484 561v39h40v39h80v-40h-80v-39h-40v-79h-40v80h40z" fill="currentColor"></path><path d="M524 441h40v80h-40zM716 441h-73v40h-39v40h40v39h112v-80h-40Zm0 79h-72v-39h72ZM716 599h40v80h-40zM564 521h40v40h-40zM604 639h40v40h-40zM644 599h40v40h-40zM684 756v-37h32v-40h-72v77h40zM444 600h40v76h-40zM524 756v-40h39v40h40v-40h-39v-40h-80v80h40zM364 441h80v40h-80zM244 481h40v80h-40zM748.5 1157.18q-7.41 0-11 4.58a16.87 16.87 0 0 0-3.14 7.62h26.54a17 17 0 0 0-2.8-8.15q-3.1-4.05-9.6-4.05ZM592.85 1180.08a15.66 15.66 0 0 0-3.55 1.75 7.59 7.59 0 0 0-2.23 2.3 5.93 5.93 0 0 0-.77 3 6.26 6.26 0 0 0 1 3.53 6.79 6.79 0 0 0 2.92 2.42 11.3 11.3 0 0 0 4.78.9 15.5 15.5 0 0 0 7-1.45 13.86 13.86 0 0 0 4.62-3.55 12.43 12.43 0 0 0 2.33-4 15.42 15.42 0 0 0 1.07-5.27c.05-1.19.09-2.22.11-3.14l-5.63.91c-2.6.44-4.84.85-6.7 1.23a46.46 46.46 0 0 0-4.95 1.37ZM542.65 1157.18q-7.41 0-11 4.58a16.86 16.86 0 0 0-3.13 7.62h26.54a17.07 17.07 0 0 0-2.81-8.15c-2.04-2.7-5.25-4.05-9.6-4.05ZM414.35 1180.08a15.66 15.66 0 0 0-3.55 1.75 7.43 7.43 0 0 0-2.22 2.3 5.84 5.84 0 0 0-.78 3 6.26 6.26 0 0 0 1 3.53 6.82 6.82 0 0 0 2.93 2.42 11.22 11.22 0 0 0 4.77.9 15.47 15.47 0 0 0 7-1.45 13.9 13.9 0 0 0 4.63-3.55 12.38 12.38 0 0 0 2.32-4 15.66 15.66 0 0 0 1.08-5.27c.05-1.19.08-2.22.1-3.14l-5.63.91q-3.9.66-6.7 1.23a47.09 47.09 0 0 0-4.95 1.37Z" fill="currentColor"></path><text x="50%" y="1200" fill="white" font-family="sans-serif" font-size="100" font-weight="600" text-anchor="middle">¡Escaneame!</text></symbol><symbol id="f-25" viewBox="0 0 1000 1300"><path fill="#585858" d="m59.85 179.25-.35-38L906.05.14c22.17-1.81 40.14 14.53 40.15 36.5l.32 142.61H59.85Z"></path><path d="M960 181.25v860.5H99.5v-860.5H960m0-40H59.5v940.5H960c22.09 0 40-17.91 40-40v-860.5c0-22.09-17.91-40-40-40Z" fill="currentColor"></path><rect width="685.8" height="685.8" x="186.85" y="268.6" fill="#e5e7ef" rx="40" ry="40"></rect><path d="M960 1300H59.5v-260H1000v220c0 22.09-17.91 40-40 40Z" fill="currentColor"></path><g fill="#585858"><rect width="160.75" height="51.96" y="282.08" rx="24.89" ry="24.89"></rect><rect width="160.75" height="51.96" y="557.12" rx="24.89" ry="24.89"></rect><rect width="160.75" height="51.96" y="832.16" rx="24.89" ry="24.89"></rect><rect width="160.75" height="51.96" y="1107.2" rx="24.89" ry="24.89"></rect></g><path d="M443.75 355.5h-170v170h170v-170Zm-40 130h-90v-90h90v90Z" fill="currentColor"></path><path d="M338.75 420.5h40v40h-40zM785.75 355.5h-170v170h170v-170Zm-40 130h-90v-90h90v90Z" fill="currentColor"></path><path d="M680.75 420.5h40v40h-40zM443.75 697.5h-170v170h170v-170Zm-40 130h-90v-90h90v90Z" fill="currentColor"></path><path d="M338.75 762.5h40v40h-40zM313.75 552.5h40v40h-40zM392.75 632.5v40h40v-40h-39v-40h-40v40h39zM553.75 432.5h40v40h-40zM473.75 395.5h40v77h-40zM513.75 355.5h40v40h-40zM553.75 472.5h-40v40h-40v40h80v-80zM513.75 672.5v39h40v39h80v-40h-80v-39h-40v-79h-40v80h40z" fill="currentColor"></path><path d="M553.75 552.5h40v80h-40zM673.75 671.5h112v-80h-40v-39h-73v40h-39v40h40v39Zm0-79h72v39h-72v-39ZM745.75 710.5h40v80h-40zM593.75 632.5h40v40h-40zM633.75 750.5h40v40h-40zM673.75 710.5h40v40h-40zM713.75 867.5v-37h32v-40h-72v77h40zM473.75 711.5h40v76h-40zM553.75 867.5v-40h39v40h40v-40h-39v-40h-80v80h40zM393.75 552.5h80v40h-80zM273.75 592.5h40v80h-40z" fill="currentColor"></path><text x="530" y="1198" fill="white" font-family="sans-serif" font-size="95" font-weight="600" text-anchor="middle">¡Escaneame!</text></symbol><symbol id="f-17" viewBox="0 0 1000 1300"><rect width="670.06" height="670.06" x="164.97" y="178.79" fill="#e5e7ef" rx="34.36" ry="34.36"></rect><path d="M79.95 1042.01S3.48 931.91 55.48 806.37c22.79-55.01 53.55-80 53.55-80l-30.13 7.15-5-17.88s59.71-7.55 74.08-5.35c-11.91 26.17-17.47 67.18-17.47 67.18l-16.96-1.73 8.93-36.67S72.5 786.1 59.93 852.18c-21.17 111.37 25.33 186.45 25.33 186.45l-5.29 3.38ZM120.28 1112.99c-1.96 5.91-4.07 12.46-6.31 19.65-2.24 7.2-4.52 14.76-6.81 22.68-2.3 7.92-4.58 16.08-6.84 24.46-2.26 8.39-4.39 16.69-6.4 24.91.43.81 1.52 1.98 3.27 3.51 1.75 1.53 3.85 3.12 6.31 4.76 2.45 1.65 5.08 3.21 7.89 4.68 2.81 1.47 5.44 2.53 7.91 3.17 1.62-13.48 3.09-25.41 4.42-35.78 1.32-10.38 2.57-19.58 3.76-27.63 1.19-8.04 2.34-15.13 3.46-21.26 1.12-6.13 2.31-11.72 3.58-16.78-1.59-1.52-3.66-2.88-6.21-4.07a26.373 26.373 0 0 0-8.02-2.31ZM145.66 1083.85c-.73-.52-1.65-1.07-2.77-1.66a69.63 69.63 0 0 0-3.73-1.81 52.18 52.18 0 0 0-4.03-1.62c-1.32-.47-2.54-.84-3.67-1.11-1.13-.27-2.01-.37-2.62-.28-.37.05-.97.89-1.8 2.51-.83 1.62-1.65 3.49-2.47 5.6-.82 2.12-1.5 4.26-2.03 6.43-.53 2.17-.72 3.81-.56 4.91.05.37.88.9 2.48 1.61 1.6.71 3.4 1.39 5.4 2.04 2 .65 3.89 1.22 5.68 1.71 1.79.49 2.93.7 3.42.63.55-.08 1.27-.96 2.15-2.65.88-1.69 1.76-3.58 2.65-5.68.88-2.1 1.63-4.08 2.24-5.95.61-1.87.88-3.05.8-3.54-.04-.24-.42-.63-1.15-1.15ZM242.75 1037.17c-1.27 3.37-2.8 6.62-4.6 9.75-1.8 3.13-3.73 5.82-5.78 8.05l17.8 11.69c2.2-2.5 4.3-5.51 6.3-9.01 1.99-3.5 3.68-7.18 5.07-11.04 1.38-3.85 2.38-7.76 3-11.73.62-3.96.68-7.69.17-11.18-.29-2.02-1.32-4.2-3.1-6.54-1.77-2.34-3.88-4.6-6.32-6.78a60.294 60.294 0 0 0-7.73-5.87c-2.72-1.73-5.2-3-7.44-3.8-2.7-.92-7.2-.93-13.5-.03-3.8.55-7.62 1.72-11.49 3.53-3.87 1.81-7.57 4.07-11.11 6.8a67.75 67.75 0 0 0-9.86 9.34c-3.03 3.5-5.57 7.24-7.62 11.22a50.497 50.497 0 0 0-4.49 12.46c-.94 4.32-1.1 8.63-.49 12.91.36 2.51.93 4.74 1.71 6.69.78 1.95 1.7 3.68 2.76 5.18 1.06 1.5 2.22 2.82 3.47 3.95 1.26 1.13 2.51 2.17 3.78 3.11-5.65 3.75-10.84 7.95-15.58 12.6-4.74 4.65-8.73 9.66-11.99 15.03a59.687 59.687 0 0 0-7.06 17.09c-1.44 6.02-1.71 12.24-.78 18.67l.32 2.2c.34 1.95 1.17 3.99 2.47 6.11 1.31 2.12 2.93 4.2 4.88 6.23 1.95 2.03 4.16 3.95 6.64 5.75s5.12 3.33 7.92 4.58 5.7 2.16 8.69 2.73c2.99.57 5.92.65 8.8.23 3.31-.48 6.84-1.77 10.6-3.87s7.5-4.64 11.23-7.61c3.73-2.97 7.35-6.23 10.88-9.77 3.52-3.54 6.74-6.98 9.67-10.34 2.92-3.36 5.41-6.46 7.47-9.32 2.06-2.86 3.5-5.06 4.34-6.62-2.6-1.56-5.41-3.3-8.44-5.21a405.76 405.76 0 0 0-10.68-6.48c-1.15 1.98-2.74 4.42-4.76 7.34-2.02 2.91-4.34 6.01-6.96 9.3a185.21 185.21 0 0 1-8.51 9.89 131.45 131.45 0 0 1-9.23 9.11c-3.1 2.76-6.14 5.07-9.12 6.94-2.98 1.87-5.76 2.98-8.33 3.35-1.96.28-3.5-.23-4.63-1.54s-1.82-2.91-2.1-4.81c-.77-5.39-.28-11.19 1.48-17.41 1.76-6.22 4.57-12.42 8.43-18.6 3.86-6.18 8.68-12.1 14.45-17.78 5.78-5.67 12.29-10.69 19.54-15.04-2.79-1.16-5.28-2.3-7.47-3.42-2.19-1.12-4.11-2.42-5.76-3.9-1.65-1.48-3-3.25-4.05-5.32-1.05-2.07-1.79-4.6-2.22-7.6-.5-3.49-.34-7.04.48-10.66.82-3.62 2.08-7.14 3.78-10.57 1.69-3.43 3.74-6.68 6.14-9.74 2.4-3.06 4.93-5.77 7.59-8.12 2.66-2.35 5.35-4.28 8.07-5.8 2.72-1.52 5.27-2.45 7.66-2.79 2.81-.41 4.87.1 6.17 1.5 1.29 1.41 2.11 3.24 2.43 5.51.41 2.82.32 5.92-.25 9.32-.58 3.4-1.5 6.78-2.76 10.14ZM826.65 1041.58c-2.67 3.2-5.5 6.1-8.49 8.72a54.1 54.1 0 0 1-9.58 6.72c-3.39 1.86-7.1 3.08-11.14 3.66-2.27.33-3.86.21-4.78-.34-.92-.55-1.52-1.78-1.79-3.68-.2-1.41-.32-2.86-.34-4.36 5.04-3.16 9.63-6.24 13.76-9.24 4.13-3 7.62-5.86 10.48-8.58 2.86-2.72 5-5.3 6.43-7.72 1.43-2.42 2-4.68 1.7-6.76-.18-1.29-.88-2.73-2.08-4.34-1.2-1.61-2.68-3.1-4.44-4.47a24.37 24.37 0 0 0-5.68-3.31c-2.03-.83-3.99-1.11-5.89-.84-2.63.38-5.45 1.22-8.45 2.53-3 1.31-5.95 3.04-8.86 5.21-2.91 2.17-5.63 4.75-8.17 7.74s-4.7 6.33-6.48 10.02c-1.78 3.69-3.06 7.74-3.83 12.13-.21 1.21-.36 2.44-.46 3.69-.01.01-.02.02-.03.04a220.64 220.64 0 0 1-4.81 5.33 171 171 0 0 1-4.86 5.01c-1.56 1.54-2.96 2.8-4.19 3.79-1.23.99-2.19 1.53-2.86 1.63-.37.05-.58-.1-.63-.47-.1-.67-.04-1.78.18-3.31s.52-3.32.91-5.38.85-4.26 1.39-6.62c.54-2.36 1.07-4.71 1.61-7.07.54-2.36 1.04-4.63 1.5-6.82.47-2.19.83-4.09 1.1-5.69.06-.45.1-.81.12-1.1.02-.28.02-.52 0-.7-.13-.92-.88-1.9-2.25-2.96-1.37-1.05-2.95-2.04-4.74-2.97-1.79-.93-3.54-1.68-5.24-2.25-1.71-.57-2.96-.79-3.75-.68-.55.08-1.28.44-2.19 1.06-.91.63-2.12 1.84-3.65 3.62-1.52 1.78-3.46 4.29-5.8 7.54-2.35 3.24-5.23 7.52-8.65 12.82.37-2.18.77-4.31 1.19-6.4.42-2.09.85-4.17 1.31-6.23.23-.97.07-1.67-.49-2.09-.64-.53-1.7-1.18-3.18-1.93-1.48-.75-3.04-1.47-4.67-2.14-1.63-.67-3.14-1.22-4.55-1.64-1.41-.42-2.38-.59-2.93-.52-.87.44-1.82 1.04-2.83 1.81s-2.25 2.04-3.72 3.81c-1.46 1.77-3.27 4.22-5.41 7.34s-4.82 7.25-8.01 12.4c.37-2.18.78-4.33 1.23-6.46s.9-4.19 1.36-6.19a48.697 48.697 0 0 0-9.58-5c-3.41-1.32-6.49-2.41-9.23-3.26-1.08 3.78-2.05 7.69-2.91 11.71-.86 4.03-1.6 7.96-2.24 11.8-.52 3.17-.97 6.2-1.33 9.11-1.11 1.31-2.33 2.72-3.68 4.26-1.5 1.72-3.08 3.47-4.72 5.27-1.65 1.8-3.21 3.43-4.69 4.89-1.48 1.46-2.8 2.68-3.97 3.66-1.17.98-2.03 1.51-2.58 1.59-.37.05-.58-.1-.63-.47-.1-.67-.19-1.64-.28-2.91-.09-1.27-.06-2.82.08-4.65.14-1.83.43-3.98.85-6.45.43-2.47 1.14-5.24 2.13-8.32-.1-.67-.5-1.6-1.2-2.78-.7-1.18-1.51-2.39-2.44-3.63a30.47 30.47 0 0 0-2.92-3.38c-1.02-1.01-1.9-1.71-2.65-2.1-.13-.04-.22-.03-.28.04-.05.07-.07.14-.07.2-.88 2.13-2.01 4.26-3.39 6.39a78.077 78.077 0 0 1-4.05 5.74 69.253 69.253 0 0 1-4.8 5.75c-1.89 2.08-3.71 4.08-5.46 5.99-1.76 1.91-3.38 3.58-4.86 5.01-1.48 1.43-2.83 2.59-4.04 3.49-1.22.89-2.25 1.4-3.11 1.52-.86.12-1.36-.33-1.51-1.38-.2-1.41.32-3.84 1.57-7.3s3.79-7.72 7.63-12.77c1.63-2.11 3.42-4.27 5.35-6.49 1.67-1.86 3.6-3.88 5.79-6.03a64.78 64.78 0 0 1 7.1-6.04l.16-.21c.05-.07.04-.16-.04-.28-.3-.33-.87-.73-1.72-1.21-.85-.47-1.82-.92-2.92-1.36a72.24 72.24 0 0 0-3.27-1.22c-1.08-.37-2.01-.63-2.78-.77-.2-.1-.34-.11-.43-.03-.08.07-.19.12-.31.14a48.276 48.276 0 0 0-8.89 5.31c-2.76 2.08-5.19 4.09-7.29 6.02a76.642 76.642 0 0 0-6.84 7.17c-4.05 4.89-7.12 9.54-9.24 13.94-.24.5-.45.97-.67 1.46-2.48 3.1-4.99 6.18-7.54 9.23-2.67 3.2-5.5 6.1-8.49 8.72a54.1 54.1 0 0 1-9.58 6.72c-3.39 1.86-7.1 3.08-11.14 3.66-2.27.33-3.86.21-4.78-.34-.92-.55-1.52-1.78-1.79-3.68-.2-1.41-.32-2.86-.34-4.36 5.04-3.16 9.63-6.24 13.76-9.24 4.13-3 7.62-5.86 10.48-8.58 2.86-2.72 5-5.3 6.43-7.72 1.43-2.42 2-4.68 1.7-6.76-.18-1.29-.88-2.73-2.08-4.34-1.2-1.61-2.68-3.1-4.44-4.47a24.37 24.37 0 0 0-5.68-3.31c-2.03-.83-3.99-1.11-5.88-.84-2.63.38-5.45 1.22-8.45 2.53-3 1.31-5.95 3.04-8.86 5.21-2.91 2.17-5.63 4.75-8.17 7.74s-4.7 6.33-6.48 10.02c-1.78 3.69-3.06 7.74-3.83 12.13-.21 1.21-.36 2.44-.46 3.69-.01.01-.02.02-.03.04a220.64 220.64 0 0 1-4.81 5.33 171 171 0 0 1-4.86 5.01c-1.56 1.54-2.96 2.8-4.19 3.79-1.23.99-2.19 1.53-2.86 1.63-.37.05-.58-.1-.63-.47-.1-.67-.04-1.78.18-3.31s.52-3.32.91-5.38.85-4.26 1.39-6.62c.54-2.36 1.07-4.71 1.61-7.07.54-2.36 1.04-4.63 1.5-6.82.47-2.19.83-4.09 1.1-5.69.06-.45.1-.81.12-1.1.02-.28.02-.52 0-.7-.13-.92-.88-1.9-2.25-2.96-1.37-1.05-2.95-2.04-4.74-2.97-1.79-.93-3.54-1.68-5.24-2.25-1.71-.57-2.96-.79-3.75-.68-.67.1-1.57.52-2.68 1.27s-2.51 2.07-4.21 3.93c-1.7 1.87-3.74 4.4-6.13 7.58-2.38 3.19-5.19 7.26-8.41 12.22.43-2.25.86-4.44 1.31-6.56.44-2.13.89-4.22 1.35-6.29a51.1 51.1 0 0 0-9.67-4.98c-3.41-1.32-6.49-2.41-9.23-3.26-1.08 3.78-2.04 7.68-2.86 11.71a293.1 293.1 0 0 0-2.19 11.8c-.44 2.65-.83 5.2-1.17 7.67-.31.36-.63.75-.98 1.16-1.2 1.42-2.55 2.99-4.06 4.71-1.5 1.72-3.08 3.47-4.72 5.27-1.65 1.8-3.21 3.43-4.68 4.89-1.48 1.46-2.8 2.68-3.97 3.66-1.17.98-2.03 1.51-2.58 1.59-.37.05-.58-.1-.63-.47-.1-.67-.19-1.64-.28-2.91-.09-1.27-.06-2.82.08-4.65.14-1.83.43-3.98.85-6.45.43-2.47 1.14-5.24 2.13-8.32-.1-.67-.5-1.6-1.2-2.78-.7-1.18-1.51-2.39-2.44-3.63a30.47 30.47 0 0 0-2.92-3.38c-1.02-1.01-1.9-1.71-2.65-2.1-.13-.04-.22-.03-.28.04-.05.07-.07.14-.07.2-.88 2.13-2.01 4.26-3.39 6.39a78.077 78.077 0 0 1-4.05 5.74 69.253 69.253 0 0 1-4.8 5.75c-1.89 2.08-3.71 4.08-5.46 5.99-1.76 1.91-3.38 3.58-4.86 5.01-1.48 1.43-2.83 2.59-4.04 3.49-1.22.89-2.25 1.4-3.11 1.52-.86.12-1.36-.33-1.51-1.38-.2-1.41.32-3.84 1.57-7.3s3.79-7.72 7.63-12.77c1.63-2.11 3.42-4.27 5.35-6.49 1.67-1.86 3.6-3.88 5.79-6.03 2.19-2.16 4.55-4.17 7.1-6.04l.16-.21c.05-.07.04-.16-.04-.28-.3-.33-.87-.73-1.72-1.21-.85-.47-1.82-.92-2.92-1.36a72.24 72.24 0 0 0-3.27-1.22c-1.08-.37-2.01-.63-2.78-.77-.2-.1-.34-.11-.43-.03-.08.07-.19.12-.31.14a48.276 48.276 0 0 0-8.89 5.31c-2.76 2.08-5.19 4.09-7.29 6.02a76.642 76.642 0 0 0-6.84 7.17c-4.05 4.89-7.12 9.54-9.24 13.94-.25.52-.46 1.01-.7 1.52-2.37 3.01-4.91 6.04-7.62 9.1-2.8 3.15-5.8 6.07-9 8.75a60.009 60.009 0 0 1-10.25 6.91c-3.63 1.93-7.5 3.19-11.6 3.78-1.65.24-2.92.15-3.79-.25-.87-.4-1.4-1.28-1.6-2.63-.33-2.26-.38-4.82-.17-7.66s.63-5.71 1.25-8.61c.61-2.9 1.41-5.75 2.38-8.54.97-2.79 2.05-5.31 3.23-7.54 1.18-2.23 2.42-4.06 3.71-5.5 1.29-1.44 2.61-2.25 3.96-2.44.49-.07.9.06 1.23.39.33.33.53.77.61 1.32.16 1.1-.11 2.5-.8 4.19-.69 1.69-1.49 3.4-2.4 5.13-.91 1.72-1.73 3.31-2.46 4.76-.73 1.45-1.04 2.51-.95 3.18.09.61.65.84 1.69.69 1.78-.26 3.8-.95 6.07-2.09 2.27-1.14 4.41-2.46 6.41-3.97 2-1.51 3.7-3.06 5.09-4.67 1.39-1.61 2.16-3.01 2.3-4.22-.13-.92-.58-1.93-1.33-3.04-.75-1.11-1.68-2.23-2.78-3.35-1.1-1.12-2.3-2.21-3.61-3.28-1.31-1.06-2.58-2-3.83-2.82-1.24-.82-2.38-1.45-3.41-1.9-1.03-.44-1.82-.63-2.38-.55-3.67.53-7.2 1.63-10.58 3.3a43.623 43.623 0 0 0-9.32 6.21 48.711 48.711 0 0 0-7.64 8.46c-2.26 3.17-4.11 6.48-5.55 9.94a46.077 46.077 0 0 0-3.01 10.7c-.14.91-.25 1.82-.32 2.73-2.1 2.36-4.51 4.91-7.23 7.64a98.671 98.671 0 0 1-8.38 7.53 18.35 18.35 0 0 0 2.37-7.32c.28-2.63.27-4.93 0-6.89-.47-3.24-1.08-6.08-1.83-8.5-.76-2.42-1.46-4.71-2.11-6.87-.66-2.16-1.16-4.36-1.52-6.62-.36-2.26-.37-4.85-.04-7.77-.04-.24-.7-.85-2-1.82-1.3-.97-2.77-2.02-4.44-3.16-1.66-1.13-3.32-2.19-4.96-3.18-1.64-.98-2.86-1.63-3.66-1.96-.49.07-.98.58-1.47 1.52-.49.95-.96 2.11-1.42 3.48-.46 1.38-.84 2.89-1.13 4.52-.29 1.64-.47 3.18-.51 4.62-.53 2.83-1.41 5.51-2.63 8.06-1.23 2.55-2.6 4.97-4.11 7.25a96.509 96.509 0 0 1-4.61 6.38c-1.56 1.97-2.95 3.74-4.16 5.28l5.05 3.87c.96-1.14 2.04-2.43 3.24-3.89 1.2-1.45 2.39-2.94 3.58-4.45 1.19-1.51 2.36-3.04 3.51-4.58s2.16-3 3.03-4.37c.63 2.22 1.24 4.52 1.84 6.91.59 2.38 1.07 4.86 1.44 7.43.25 1.78.34 3.48.27 5.12-.08 1.64-.37 3.11-.86 4.44-.5 1.32-1.2 2.42-2.1 3.3-.9.88-2.06 1.42-3.47 1.62-2.57.37-4.45.36-5.63-.03-1.18-.39-1.96-.56-2.32-.51-.18.03-.42.23-.71.62s-.57.82-.84 1.29c-.28.48-.51.93-.7 1.36-.19.43-.27.71-.25.83.38.88 1.37 1.9 2.97 3.04 1.6 1.15 3.44 2.19 5.51 3.14 2.07.95 4.24 1.7 6.51 2.25 2.27.55 4.29.7 6.06.44 2.08-.3 4.25-1.05 6.52-2.25 2.26-1.2 4.58-2.72 6.94-4.56 2.36-1.84 4.72-3.9 7.08-6.17a164.9 164.9 0 0 0 6.9-7.08c.24-.26.47-.53.7-.79.15.83.3 1.54.47 2.12.25.84.6 1.57 1.06 2.19 1.17 1.64 2.57 3.18 4.18 4.6 1.61 1.42 3.24 2.63 4.88 3.61 1.64.98 3.22 1.72 4.72 2.23 1.51.5 2.81.67 3.92.51 5.63-.81 10.92-2.37 15.87-4.67 4.95-2.31 9.59-5.13 13.92-8.47 4.23-3.26 8.17-6.94 11.84-11.02-.07.64-.12 1.24-.14 1.79-.07 2.13-.08 3.38-.02 3.75.18 1.29.72 2.52 1.61 3.71.89 1.18 1.9 2.21 3.02 3.08 1.13.87 2.24 1.54 3.33 2 1.1.47 1.95.66 2.57.57.18-.03.37-.05.55-.08s.42-.12.71-.29c2.45-1.23 5.07-2.9 7.85-5.02 2.79-2.12 5.53-4.44 8.23-6.95s5.25-5.13 7.64-7.85c2.39-2.72 4.44-5.29 6.15-7.73-.39 2.49-.65 4.58-.79 6.25-.13 1.68-.18 3.09-.14 4.24.04 1.15.13 2.08.26 2.77.13.7.23 1.29.3 1.78.19 1.29.72 2.4 1.6 3.33.88.93 1.93 1.71 3.14 2.31 1.21.61 2.51 1.03 3.89 1.27 1.38.24 2.62.28 3.72.12 1.59-.23 3.38-1 5.38-2.32 2-1.32 4.08-2.95 6.23-4.88 2.16-1.94 4.34-4.11 6.56-6.52 2.21-2.41 4.35-4.83 6.41-7.25.74-.87 1.44-1.72 2.15-2.56-.02.17-.03.36-.05.53-.24 2.69-.4 4.92-.49 6.68-.09 1.76-.11 2.83-.06 3.19 1.27 1.01 2.68 1.99 4.22 2.95 1.55.96 3.07 1.82 4.59 2.57 1.51.75 2.97 1.32 4.37 1.71 1.4.39 2.62.51 3.66.36.86-.12 1.4-.45 1.64-.99.24-.53.48-1.26.72-2.17 1.94-7.34 4.08-13.76 6.42-19.25 2.33-5.49 4.62-10.23 6.86-14.2 2.24-3.98 4.28-7.27 6.12-9.88 1.84-2.61 3.25-4.7 4.21-6.28l.16-.21c-.71 2.91-1.42 6.09-2.14 9.54-.72 3.45-1.39 6.92-2.02 10.41-.62 3.5-1.18 6.9-1.67 10.22-.49 3.32-.83 6.27-1.02 8.86.16 1.1.78 2.17 1.87 3.2a16.78 16.78 0 0 0 3.81 2.69c1.45.76 2.93 1.36 4.43 1.8 1.5.44 2.71.59 3.63.46 1.41-.2 3.08-.94 5.02-2.22 1.94-1.28 3.99-2.89 6.15-4.82 2.16-1.93 4.36-4.1 6.61-6.48 1.78-1.89 3.48-3.76 5.15-5.63l.06.48c.19 1.35 1.01 2.89 2.44 4.62 1.44 1.73 3.15 3.34 5.15 4.84 2 1.49 4.09 2.71 6.29 3.64 2.2.93 4.12 1.28 5.77 1.04 3.92-.56 7.87-1.63 11.87-3.21 3.99-1.57 8.09-3.82 12.29-6.74 4.2-2.92 8.53-6.6 12.98-11.05 1.09-1.09 2.2-2.24 3.31-3.45-.12.89-.2 1.71-.23 2.44-.07 2.13-.08 3.38-.02 3.75.18 1.29.72 2.52 1.61 3.71.89 1.18 1.9 2.21 3.02 3.08 1.13.87 2.24 1.54 3.33 2 1.1.47 1.95.66 2.57.57l.55-.08c.18-.03.42-.12.71-.29 2.45-1.23 5.07-2.9 7.85-5.02 2.79-2.12 5.53-4.44 8.23-6.95s5.25-5.13 7.64-7.85c2.39-2.72 4.44-5.29 6.15-7.73-.39 2.49-.65 4.58-.79 6.25-.13 1.68-.18 3.09-.14 4.24.04 1.15.13 2.08.26 2.77.13.7.23 1.29.3 1.78.19 1.29.72 2.4 1.6 3.33.88.93 1.93 1.71 3.14 2.31 1.21.61 2.51 1.03 3.89 1.27 1.38.24 2.62.28 3.72.12 1.59-.23 3.38-1 5.38-2.32 2-1.32 4.08-2.95 6.23-4.88 2.16-1.94 4.34-4.11 6.56-6.52 2.21-2.41 4.35-4.83 6.41-7.25.32-.38.62-.74.93-1.11-.2 2.34-.35 4.32-.43 5.91-.09 1.76-.11 2.83-.06 3.2 1.27 1 2.68 1.99 4.22 2.95 1.54.96 3.07 1.82 4.59 2.57 1.51.75 2.97 1.32 4.37 1.71 1.4.39 2.62.51 3.66.36 1.35-.19 2.11-.96 2.29-2.3 1.48-6.21 3.2-11.83 5.17-16.86 1.96-5.03 3.95-9.49 5.95-13.37 2-3.88 3.93-7.22 5.78-10.02s3.39-5.1 4.63-6.9c-.9 4.63-1.66 9.11-2.28 13.45-.63 4.34-1.14 8.26-1.54 11.75-.4 3.5-.68 6.36-.83 8.6-.15 2.24-.19 3.57-.13 4 1.28 1.07 2.61 1.94 3.98 2.61 1.38.68 2.71 1.22 3.98 1.63 1.28.41 2.47.68 3.58.8 1.11.12 2.03.13 2.77.02 1.41-.2 2.21-.94 2.4-2.22 1.9-7.65 3.96-14.19 6.17-19.63 2.22-5.44 4.37-10.05 6.45-13.82 2.08-3.77 3.99-6.84 5.71-9.21 1.72-2.37 3.09-4.38 4.1-6.03-.71 2.91-1.42 6.08-2.15 9.49-.73 3.42-1.4 6.87-2.02 10.37-.62 3.5-1.16 6.9-1.62 10.22-.46 3.32-.79 6.27-.98 8.86.16 1.1.78 2.17 1.87 3.2 1.09 1.03 2.34 1.93 3.76 2.69s2.88 1.37 4.38 1.81c1.5.44 2.71.59 3.63.46 1.47-.21 3.17-.96 5.11-2.24 1.94-1.28 3.99-2.89 6.15-4.82 2.16-1.93 4.36-4.1 6.61-6.48 1.78-1.89 3.49-3.76 5.15-5.63l.06.48c.19 1.35 1.01 2.89 2.44 4.62 1.44 1.73 3.15 3.34 5.15 4.84 2 1.49 4.09 2.71 6.29 3.64 2.2.93 4.12 1.28 5.77 1.04 3.92-.56 7.87-1.63 11.87-3.21 3.99-1.57 8.09-3.82 12.29-6.74 4.2-2.92 8.53-6.6 12.98-11.05 4.45-4.45 9.1-9.84 13.94-16.16l-5.15-3.85c-2.6 3.25-5.23 6.47-7.89 9.66Zm-33.17-7.74c.95-2.98 2-5.64 3.16-8 1.16-2.35 2.38-4.29 3.66-5.82 1.28-1.53 2.53-2.38 3.76-2.56.67-.1 1.21.05 1.61.43.4.38.64.85.72 1.4.27 1.9.02 3.87-.74 5.92-.77 2.05-1.88 4.1-3.33 6.15-1.45 2.05-3.15 4.06-5.08 6.03a109.15 109.15 0 0 1-5.98 5.64c.55-3.14 1.3-6.2 2.24-9.18Zm-243.53 35.03c.95-2.98 2-5.65 3.16-8 1.16-2.35 2.38-4.29 3.66-5.82 1.28-1.53 2.53-2.38 3.76-2.56.67-.1 1.21.05 1.61.42.4.38.64.85.72 1.4.27 1.9.02 3.87-.74 5.92-.77 2.05-1.88 4.1-3.33 6.15a49.66 49.66 0 0 1-5.09 6.03 109.15 109.15 0 0 1-5.98 5.64c.55-3.14 1.29-6.2 2.24-9.18ZM893.98 929.41c-1.75-1.53-3.84-3.12-6.26-4.77a80.772 80.772 0 0 0-7.84-4.68c-2.8-1.47-5.47-2.52-8-3.16-1.62 13.48-3.08 25.41-4.37 35.78-1.29 10.37-2.53 19.58-3.71 27.62-1.19 8.04-2.36 15.13-3.5 21.26-1.15 6.13-2.33 11.69-3.55 16.68 1.59 1.52 3.66 2.88 6.21 4.07 2.54 1.2 5.19 2 7.94 2.42 1.96-5.91 4.08-12.46 6.36-19.66 2.28-7.2 4.56-14.76 6.86-22.69 2.29-7.92 4.56-16.06 6.8-24.41 2.23-8.35 4.35-16.67 6.35-24.95-.43-.81-1.52-1.98-3.27-3.51ZM868.83 1041.28c-.73-.49-1.65-1.03-2.76-1.62-1.11-.59-2.36-1.21-3.73-1.85a44.42 44.42 0 0 0-4.04-1.67c-1.32-.47-2.54-.84-3.67-1.11-1.13-.27-2.01-.37-2.62-.28-.37.05-.95.89-1.75 2.5-.8 1.61-1.61 3.48-2.43 5.6-.82 2.12-1.5 4.26-2.03 6.43-.53 2.17-.72 3.81-.56 4.91.04.25.44.56 1.22.95.77.39 1.72.82 2.85 1.28 1.13.46 2.38.94 3.77 1.43 1.38.49 2.69.91 3.93 1.26 1.24.35 2.34.63 3.31.84.97.2 1.6.29 1.91.24.49-.07 1.19-.95 2.1-2.65.91-1.69 1.8-3.59 2.65-5.68.85-2.09 1.58-4.07 2.19-5.94.61-1.87.87-3.05.8-3.54-.04-.24-.42-.61-1.14-1.1ZM414.58 257.82h-170v170h170v-170Zm-40 130h-90v-90h90v90Z" fill="currentColor"></path><path d="M309.58 322.82h40v40h-40zM756.58 257.82h-170v170h170v-170Zm-40 130h-90v-90h90v90Z" fill="currentColor"></path><path d="M651.58 322.82h40v40h-40zM414.58 599.82h-170v170h170v-170Zm-40 130h-90v-90h90v90Z" fill="currentColor"></path><path d="M309.58 664.82h40v40h-40zM284.58 454.82h40v40h-40zM363.58 534.82v40h40v-40h-39v-40h-40v40h39zM524.58 334.82h40v40h-40zM444.58 297.82h40v77h-40zM484.58 257.82h40v40h-40zM524.58 374.82h-40v40h-40v40h80v-80zM484.58 574.82v39h40v39h80v-40h-80v-39h-40v-79h-40v80h40z" fill="currentColor"></path><path d="M524.58 454.82h40v80h-40zM644.58 573.82h112v-80h-40v-39h-73v40h-39v40h40v39Zm0-79h72v39h-72v-39ZM716.58 612.82h40v80h-40zM564.58 534.82h40v40h-40zM604.58 652.82h40v40h-40zM644.58 612.82h40v40h-40zM684.58 769.82v-37h32v-40h-72v77h40zM444.58 613.82h40v76h-40zM524.58 769.82v-40h39v40h40v-40h-39v-40h-80v80h40zM364.58 454.82h80v40h-80zM244.58 494.82h40v80h-40z" fill="currentColor"></path></symbol><symbol id="f-10" viewBox="0 0 1000 1300"><rect width="1000" height="1300" rx="40" style="fill: rgb(255, 255, 255);"></rect><rect width="780" height="780" x="110" y="110" rx="40" style="fill: rgb(229, 231, 239);"></rect><path d="M414 244H244v170h170Zm-40 130h-90v-90h90Z" fill="currentColor"></path><path d="M309 309h40v40h-40zM756 244H586v170h170Zm-40 130h-90v-90h90Z" fill="currentColor"></path><path d="M651 309h40v40h-40zM414 586H244v170h170Zm-40 130h-90v-90h90Z" fill="currentColor"></path><path d="M309 651h40v40h-40zM284 441h40v40h-40zM324 521h39v40h40v-40h-39v-40h-40v40zM524 321h40v40h-40zM444 284h40v77h-40zM484 244h40v40h-40zM524 361h-40v40h-40v40h80v-80zM524 599v-39h-40v-79h-40v80h40v39h40v39h80v-40h-80z" fill="currentColor"></path><path d="M524 441h40v80h-40zM644 560h112v-80h-40v-39h-73v40h-39v40h40Zm0-79h72v39h-72ZM716 599h40v80h-40zM564 521h40v40h-40zM604 639h40v40h-40zM644 599h40v40h-40zM644 756h40v-37h32v-40h-72v77zM444 600h40v76h-40zM524 756v-40h39v40h40v-40h-39v-40h-80v80h40zM364 441h80v40h-80zM244 481h40v80h-40z" fill="currentColor"></path><path d="M941.6 10H58.4C31.71 10 10 32.18 10 59.43v1151.36a10 10 0 0 0 1.67 5.54l42.93 64.59a15.29 15.29 0 0 0 25.46 0l35.38-53.22 35.37 53.22a15.29 15.29 0 0 0 25.46 0l35.37-53.22 35.36 53.22a15.29 15.29 0 0 0 25.46 0l35.37-53.22 35.38 53.22a15.24 15.24 0 0 0 12.72 6.82 15.28 15.28 0 0 0 12.73-6.82l35.37-53.22 35.37 53.22a15.29 15.29 0 0 0 25.46 0l35.38-53.22 35.37 53.22a15.29 15.29 0 0 0 25.46 0l35.37-53.22 35.38 53.22a15.29 15.29 0 0 0 25.46 0l35.37-53.22 35.38 53.22a15.29 15.29 0 0 0 25.46 0l35.37-53.22 35.37 53.22a15.29 15.29 0 0 0 25.46 0l35.38-53.22 35.37 53.22a15.26 15.26 0 0 0 12.73 6.82 15.26 15.26 0 0 0 12.73-6.82l42.4-63.78a10 10 0 0 0 1.67-5.54V59.43C990 32.18 968.29 10 941.6 10ZM970 1208.58l-36.8 55.36-35.37-53.22a15.29 15.29 0 0 0-25.46 0L837 1263.94l-35.37-53.22a15.29 15.29 0 0 0-25.46 0l-35.37 53.22-35.38-53.22a15.29 15.29 0 0 0-25.46 0l-35.37 53.22-35.38-53.22a15.24 15.24 0 0 0-12.72-6.82 15.25 15.25 0 0 0-12.72 6.82l-35.38 53.22-35.39-53.22a15.29 15.29 0 0 0-25.46 0l-35.38 53.22-35.37-53.22a15.29 15.29 0 0 0-25.46 0L356 1263.94l-35.38-53.22a15.29 15.29 0 0 0-25.46 0l-35.37 53.22-35.38-53.22a15.24 15.24 0 0 0-12.72-6.82 15.25 15.25 0 0 0-12.72 6.82l-35.38 53.22-35.37-53.22a15.29 15.29 0 0 0-25.46 0l-35.38 53.22L30 1207.77V59.43C30 43.2 42.74 30 58.4 30h883.2c15.66 0 28.4 13.2 28.4 29.43Z" fill="currentColor"></path><text x="50%" y="1072" fill="currentColor" font-family="sans-serif" font-size="100" font-weight="600" text-anchor="middle">¡Escaneame!</text></symbol><symbol id="f-16" viewBox="0 0 1000 1300"><path d="M907.52 289.23v815.03H92.48V289.23h815.04m0-40H92.48c-22.09 0-40 17.91-40 40v815.03c0 22.09 17.91 40 40 40h815.04c22.09 0 40-17.91 40-40V289.23c0-22.09-17.91-40-40-40Z" fill="currentColor"></path><rect width="698.13" height="698.13" x="150.94" y="347.69" fill="#e5e7ef" rx="40" ry="40"></rect><path d="M907.52 1300H92.48c-22.09 0-40-17.91-40-40v-150.64h895.04V1260c0 22.09-17.91 40-40 40Z" fill="currentColor"></path><path fill="#585858" d="M1000 252.42v15.24l-209.57-1.74c1.86 12.94 1.16 27.19-6.31 41.09-8.37 15.59-26.66 34.17-66.2 34.17-52.4 0-123.83-34.06-165.37-68.97a46.992 46.992 0 0 1-26.65 8.3h-37.53c-9.65 0-18.91-2.97-26.65-8.3-41.53 34.91-112.97 68.97-165.37 68.97-39.54 0-57.83-18.58-66.2-34.17-7.48-13.93-8.18-28.21-6.3-41.18L0 267.66l1-15.24h999Z" opacity="0.5"></path><path fill="#585858" d="M315.72 84.4S85.29 76.08 16.58 82.56c36.1 32.76 68.76 76.64 68.76 76.64L1 252.42s321.01-2.29 370.14-2.65c-8.6-33.28-55.42-165.37-55.42-165.37ZM685.28 84.4s230.43-8.32 299.14-1.84c-36.1 32.76-68.76 76.64-68.76 76.64l84.34 93.22s-321.01-2.29-370.14-2.65c8.6-33.28 55.42-165.37 55.42-165.37Z"></path><path d="M537.66 89.21S641.19.06 719.42.86s73.87 49.43 70.55 63.45c-5.88 24.89-36.04 85.94-36.04 119.67s35.52 78.54 16.97 114.69c-37.32 72.75-202.56-15.9-233.24-68.91-30.68-53.01 0-140.55 0-140.55Z" fill="currentColor"></path><path fill="#585858" d="M580.48 91.21S713.58-4.38 752.1 35.59c42.69 44.29-171.62 55.62-171.62 55.62Z"></path><path d="M476.59 89.21S373.06.06 294.84.86s-73.87 49.43-70.55 63.45c5.88 24.89 36.04 85.94 36.04 119.67s-35.52 78.54-16.97 114.69c37.32 72.75 202.56-15.9 233.24-68.91 30.68-53.01 0-140.55 0-140.55Z" fill="currentColor"></path><path fill="#585858" d="M433.77 91.21S300.67-4.38 262.15 35.59c-42.69 44.29 171.62 55.62 171.62 55.62Z"></path><rect width="101.53" height="183.99" x="456.36" y="78.65" fill="#585858" rx="32" ry="32"></rect><path d="M414 440.75H244v170h170v-170Zm-40 130h-90v-90h90v90Z" fill="currentColor"></path><path d="M309 505.75h40v40h-40zM756 440.75H586v170h170v-170Zm-40 130h-90v-90h90v90Z" fill="currentColor"></path><path d="M651 505.75h40v40h-40zM414 782.75H244v170h170v-170Zm-40 130h-90v-90h90v90Z" fill="currentColor"></path><path d="M309 847.75h40v40h-40zM284 637.75h40v40h-40zM363 717.75v40h40v-40h-39v-40h-40v40h39zM524 517.75h40v40h-40zM444 480.75h40v77h-40zM484 440.75h40v40h-40zM524 557.75h-40v40h-40v40h80v-80zM484 757.75v39h40v39h80v-40h-80v-39h-40v-79h-40v80h40z" fill="currentColor"></path><path d="M524 637.75h40v80h-40zM644 756.75h112v-80h-40v-39h-73v40h-39v40h40v39Zm0-79h72v39h-72v-39ZM716 795.75h40v80h-40zM564 717.75h40v40h-40zM604 835.75h40v40h-40zM644 795.75h40v40h-40zM684 952.75v-37h32v-40h-72v77h40zM444 796.75h40v76h-40zM524 952.75v-40h39v40h40v-40h-39v-40h-80v80h40zM364 637.75h80v40h-80zM244 677.75h40v80h-40z" fill="currentColor"></path><text x="50%" y="1236" fill="white" font-family="sans-serif" font-size="90" font-weight="600" text-anchor="middle">¡Escaneame!</text></symbol><symbol id="f-14" viewBox="0 0 1000 1300"><rect width="780" height="780" x="110" y="110" fill="#e5e7ef" rx="40" ry="40"></rect><path d="M125.61 1081.49a26.517 26.517 0 0 0-7.61-3.43c-2.78 5.57-5.8 11.75-9.04 18.55-3.25 6.8-6.57 13.96-9.97 21.48s-6.82 15.26-10.25 23.24c-3.43 7.98-6.73 15.9-9.88 23.75.31.87 1.22 2.18 2.74 3.94s3.37 3.63 5.57 5.61c2.2 1.98 4.58 3.9 7.14 5.75s5.02 3.28 7.38 4.27c3.53-13.11 6.68-24.71 9.46-34.79 2.78-10.08 5.34-19.02 7.65-26.81 2.32-7.79 4.47-14.64 6.45-20.55 1.98-5.91 3.96-11.27 5.94-16.1-1.36-1.73-3.22-3.37-5.57-4.92ZM144.77 1050.78a74.61 74.61 0 0 0-3.43-2.32c-1.27-.8-2.52-1.53-3.76-2.18-1.24-.65-2.4-1.19-3.48-1.62-1.08-.43-1.94-.65-2.55-.65-.37 0-1.08.74-2.13 2.23-1.05 1.48-2.13 3.22-3.25 5.2a52.1 52.1 0 0 0-2.92 6.08c-.83 2.07-1.25 3.66-1.25 4.78 0 .37.74 1.02 2.23 1.95s3.17 1.86 5.06 2.78c1.88.93 3.68 1.76 5.38 2.5 1.7.74 2.8 1.11 3.29 1.11.56 0 1.39-.77 2.5-2.32a74.87 74.87 0 0 0 3.43-5.24c1.17-1.95 2.19-3.8 3.06-5.57.87-1.76 1.3-2.89 1.3-3.39 0-.25-.32-.68-.97-1.3-.65-.62-1.48-1.3-2.51-2.04ZM250.02 1020.44a66.023 66.023 0 0 1-5.94 9c-2.23 2.85-4.52 5.23-6.87 7.14l15.96 14.1c2.54-2.16 5.04-4.84 7.51-8.02 2.47-3.19 4.67-6.59 6.59-10.21 1.92-3.62 3.46-7.34 4.64-11.18 1.17-3.83 1.76-7.51 1.76-11.04 0-2.04-.71-4.34-2.13-6.91-1.42-2.57-3.19-5.1-5.29-7.61-2.1-2.5-4.38-4.81-6.82-6.91-2.44-2.1-4.72-3.71-6.82-4.82-2.54-1.3-6.99-1.95-13.36-1.95-3.84 0-7.79.62-11.88 1.86-4.08 1.24-8.07 2.95-11.97 5.15-3.9 2.2-7.59 4.81-11.09 7.84-3.49 3.03-6.54 6.37-9.14 10.02a50.31 50.31 0 0 0-6.21 11.69c-1.55 4.14-2.32 8.38-2.32 12.71 0 2.54.25 4.82.74 6.87.49 2.04 1.16 3.88 2 5.52.83 1.64 1.79 3.11 2.88 4.41s2.18 2.5 3.29 3.62c-6.12 2.91-11.86 6.32-17.21 10.25-5.35 3.93-10.02 8.32-14.01 13.17-3.99 4.86-7.13 10.16-9.42 15.91s-3.43 11.88-3.43 18.37v2.23c.06 1.98.59 4.11 1.58 6.4.99 2.29 2.3 4.58 3.94 6.87 1.64 2.29 3.56 4.5 5.75 6.63s4.59 4.02 7.19 5.66c2.6 1.64 5.34 2.95 8.21 3.94 2.88.99 5.77 1.48 8.67 1.48 3.34 0 7.02-.77 11.04-2.32 4.02-1.55 8.09-3.53 12.2-5.94s8.16-5.12 12.15-8.12c3.99-3 7.67-5.95 11.04-8.86 3.37-2.91 6.28-5.63 8.72-8.16 2.44-2.54 4.19-4.51 5.24-5.94a523.97 523.97 0 0 1-7.61-6.35c-2.72-2.32-5.94-4.96-9.65-7.93-1.42 1.79-3.34 3.99-5.75 6.59s-5.15 5.33-8.21 8.21c-3.06 2.88-6.34 5.74-9.83 8.58-3.49 2.85-6.97 5.41-10.44 7.7-3.46 2.29-6.8 4.14-10.02 5.57-3.22 1.42-6.12 2.13-8.72 2.13-1.98 0-3.43-.73-4.36-2.18-.93-1.45-1.39-3.14-1.39-5.06 0-5.44 1.31-11.12 3.94-17.02 2.63-5.91 6.29-11.64 10.99-17.21s10.31-10.75 16.84-15.54c6.53-4.79 13.68-8.83 21.48-12.11-2.6-1.54-4.9-3.03-6.91-4.45-2.01-1.42-3.73-2.98-5.15-4.68-1.42-1.7-2.5-3.65-3.25-5.84-.74-2.19-1.11-4.81-1.11-7.84 0-3.53.66-7.02 1.99-10.48 1.33-3.46 3.08-6.77 5.24-9.93 2.16-3.15 4.65-6.08 7.47-8.77 2.81-2.69 5.71-5.01 8.67-6.96s5.9-3.48 8.81-4.59c2.91-1.11 5.57-1.67 7.98-1.67 2.84 0 4.81.79 5.89 2.37s1.62 3.51 1.62 5.8c0 2.85-.53 5.91-1.58 9.18-1.05 3.28-2.44 6.49-4.17 9.65ZM827.35 1107.93a76.822 76.822 0 0 1-9.65 7.42 53.93 53.93 0 0 1-10.44 5.29c-3.62 1.36-7.47 2.04-11.55 2.04-2.29 0-3.85-.34-4.69-1.02-.83-.68-1.25-1.98-1.25-3.9 0-1.42.09-2.88.28-4.36 5.44-2.41 10.42-4.81 14.94-7.19 4.51-2.38 8.38-4.72 11.6-7 3.21-2.29 5.71-4.53 7.47-6.73 1.76-2.19 2.64-4.34 2.64-6.45 0-1.3-.48-2.83-1.44-4.59-.96-1.76-2.21-3.45-3.76-5.06a23.974 23.974 0 0 0-5.15-4.08c-1.89-1.11-3.79-1.67-5.71-1.67-2.66 0-5.57.43-8.72 1.3-3.15.87-6.32 2.17-9.51 3.9-3.19 1.73-6.25 3.9-9.19 6.49s-5.55 5.6-7.84 9c-2.29 3.4-4.13 7.22-5.52 11.46-.38 1.16-.71 2.36-.98 3.58-.01.01-.03.02-.04.03-1.76 1.52-3.6 3.05-5.52 4.59-1.92 1.55-3.76 2.97-5.52 4.27-1.76 1.3-3.33 2.35-4.69 3.15-1.36.8-2.38 1.21-3.06 1.21-.37 0-.56-.19-.56-.56 0-.68.21-1.76.65-3.25.43-1.48.99-3.21 1.67-5.2.68-1.98 1.45-4.1 2.32-6.35.87-2.26 1.73-4.51 2.6-6.77.87-2.26 1.68-4.44 2.46-6.54.77-2.1 1.41-3.93 1.9-5.47.12-.43.22-.79.28-1.07.06-.28.09-.51.09-.7 0-.93-.6-2.01-1.81-3.25-1.21-1.24-2.63-2.44-4.27-3.62-1.64-1.17-3.26-2.16-4.87-2.97-1.61-.8-2.81-1.21-3.62-1.21-.56 0-1.33.25-2.32.74-.99.5-2.37 1.52-4.13 3.06-1.76 1.55-4.04 3.76-6.82 6.63s-6.25 6.7-10.39 11.46c.68-2.1 1.38-4.16 2.09-6.17s1.44-4 2.18-5.98c.37-.93.31-1.64-.19-2.13-.56-.62-1.52-1.41-2.88-2.37-1.36-.96-2.8-1.89-4.31-2.78-1.52-.9-2.94-1.65-4.27-2.27-1.33-.62-2.27-.93-2.83-.93-.93.31-1.95.77-3.06 1.39-1.11.62-2.52 1.7-4.22 3.25-1.7 1.55-3.83 3.71-6.4 6.49s-5.8 6.49-9.7 11.13c.68-2.1 1.39-4.17 2.13-6.22s1.48-4.02 2.23-5.94a48.503 48.503 0 0 0-8.77-6.31c-3.19-1.79-6.08-3.31-8.67-4.55-1.61 3.59-3.12 7.31-4.55 11.18a274.69 274.69 0 0 0-3.9 11.36c-.97 3.06-1.84 6-2.62 8.83-1.28 1.13-2.69 2.36-4.25 3.69-1.73 1.48-3.54 3-5.43 4.55-1.89 1.55-3.66 2.94-5.33 4.17-1.67 1.24-3.15 2.26-4.45 3.06-1.3.8-2.23 1.21-2.78 1.21-.37 0-.56-.19-.56-.56 0-.68.05-1.65.14-2.92.09-1.27.34-2.8.74-4.59.4-1.79.99-3.88 1.76-6.26s1.87-5.02 3.29-7.93c0-.68-.26-1.65-.79-2.92s-1.16-2.58-1.9-3.94c-.74-1.36-1.55-2.61-2.41-3.76-.87-1.14-1.64-1.96-2.32-2.46-.12-.06-.22-.06-.28 0s-.09.12-.09.19c-1.18 1.98-2.6 3.93-4.27 5.84a78.9 78.9 0 0 1-4.82 5.1 70.545 70.545 0 0 1-5.57 5.01c-2.17 1.79-4.25 3.51-6.26 5.15-2.01 1.64-3.85 3.06-5.52 4.27s-3.17 2.17-4.5 2.88-2.43 1.07-3.29 1.07-1.3-.52-1.3-1.58c0-1.42.87-3.76 2.6-7 1.73-3.25 4.85-7.1 9.37-11.55 1.92-1.86 3.99-3.74 6.22-5.66 1.92-1.61 4.11-3.32 6.59-5.15 2.47-1.82 5.1-3.48 7.89-4.96l.19-.19c.06-.06.06-.15 0-.28-.25-.37-.76-.85-1.53-1.44s-1.67-1.17-2.69-1.76a76.92 76.92 0 0 0-3.06-1.67c-1.02-.52-1.9-.91-2.64-1.16-.19-.12-.32-.15-.42-.09-.09.06-.2.09-.32.09a47.7 47.7 0 0 0-9.55 3.99c-3.03 1.67-5.72 3.31-8.07 4.92a78.46 78.46 0 0 0-7.79 6.12c-4.7 4.27-8.41 8.43-11.13 12.48-.32.47-.62.93-.92 1.39-2.88 2.7-5.79 5.38-8.73 8.02a76.822 76.822 0 0 1-9.65 7.42 53.93 53.93 0 0 1-10.44 5.29c-3.62 1.36-7.47 2.04-11.55 2.04-2.29 0-3.85-.34-4.69-1.02-.83-.68-1.25-1.98-1.25-3.9 0-1.42.09-2.88.28-4.36 5.44-2.41 10.42-4.81 14.94-7.19 4.51-2.38 8.38-4.72 11.6-7 3.21-2.29 5.71-4.53 7.47-6.73 1.76-2.19 2.64-4.34 2.64-6.45 0-1.3-.48-2.83-1.44-4.59-.96-1.76-2.21-3.45-3.76-5.06a23.974 23.974 0 0 0-5.15-4.08c-1.89-1.11-3.79-1.67-5.71-1.67-2.66 0-5.57.43-8.72 1.3-3.15.87-6.32 2.17-9.51 3.9-3.19 1.73-6.25 3.9-9.19 6.49s-5.55 5.6-7.84 9c-2.29 3.4-4.13 7.22-5.52 11.46-.38 1.16-.71 2.36-.98 3.58-.01.01-.03.02-.04.03-1.76 1.52-3.6 3.05-5.52 4.59-1.92 1.55-3.76 2.97-5.52 4.27-1.76 1.3-3.33 2.35-4.69 3.15-1.36.8-2.38 1.21-3.06 1.21-.37 0-.56-.19-.56-.56 0-.68.21-1.76.65-3.25.43-1.48.99-3.21 1.67-5.2.68-1.98 1.45-4.1 2.32-6.35.87-2.26 1.73-4.51 2.6-6.77.87-2.26 1.68-4.44 2.46-6.54.77-2.1 1.41-3.93 1.9-5.47.12-.43.22-.79.28-1.07.06-.28.09-.51.09-.7 0-.93-.6-2.01-1.81-3.25-1.21-1.24-2.63-2.44-4.27-3.62-1.64-1.17-3.26-2.16-4.87-2.97-1.61-.8-2.81-1.21-3.62-1.21-.68 0-1.62.29-2.83.88-1.21.59-2.78 1.69-4.73 3.29-1.95 1.61-4.33 3.82-7.14 6.63-2.81 2.81-6.17 6.45-10.07 10.9.74-2.16 1.48-4.27 2.23-6.31s1.48-4.05 2.23-6.03a51.395 51.395 0 0 0-8.86-6.31c-3.19-1.79-6.08-3.31-8.67-4.55-1.61 3.59-3.11 7.31-4.5 11.18a325.03 325.03 0 0 0-3.85 11.36c-.81 2.56-1.56 5.03-2.25 7.43-.35.32-.73.65-1.14 1.01-1.39 1.24-2.96 2.6-4.69 4.08-1.73 1.48-3.54 3-5.43 4.55-1.89 1.55-3.66 2.94-5.33 4.17-1.67 1.24-3.15 2.26-4.45 3.06-1.3.8-2.23 1.21-2.78 1.21-.37 0-.56-.19-.56-.56 0-.68.05-1.65.14-2.92.09-1.27.34-2.8.74-4.59.4-1.79.99-3.88 1.76-6.26s1.87-5.02 3.29-7.93c0-.68-.26-1.65-.79-2.92s-1.16-2.58-1.9-3.94c-.74-1.36-1.55-2.61-2.41-3.76-.87-1.14-1.64-1.96-2.32-2.46-.12-.06-.22-.06-.28 0s-.09.12-.09.19c-1.18 1.98-2.6 3.93-4.27 5.84a78.9 78.9 0 0 1-4.82 5.1 70.545 70.545 0 0 1-5.57 5.01c-2.17 1.79-4.25 3.51-6.26 5.15-2.01 1.64-3.85 3.06-5.52 4.27s-3.17 2.17-4.5 2.88-2.43 1.07-3.29 1.07-1.3-.52-1.3-1.58c0-1.42.87-3.76 2.6-7 1.73-3.25 4.85-7.1 9.37-11.55 1.92-1.86 3.99-3.74 6.22-5.66 1.92-1.61 4.11-3.32 6.59-5.15 2.47-1.82 5.1-3.48 7.89-4.96l.19-.19c.06-.06.06-.15 0-.28-.25-.37-.76-.85-1.53-1.44s-1.67-1.17-2.69-1.76a76.92 76.92 0 0 0-3.06-1.67c-1.02-.52-1.9-.91-2.64-1.16-.19-.12-.32-.15-.42-.09-.09.06-.2.09-.32.09a47.7 47.7 0 0 0-9.55 3.99c-3.03 1.67-5.72 3.31-8.07 4.92a78.46 78.46 0 0 0-7.79 6.12c-4.7 4.27-8.41 8.43-11.13 12.48-.33.49-.65.97-.95 1.45-2.76 2.63-5.69 5.25-8.79 7.88-3.22 2.72-6.6 5.18-10.16 7.38-3.56 2.2-7.27 3.99-11.13 5.38a35.27 35.27 0 0 1-12.02 2.09c-1.67 0-2.91-.26-3.71-.79-.8-.52-1.21-1.47-1.21-2.83 0-2.29.31-4.82.93-7.61.62-2.78 1.44-5.57 2.46-8.35 1.02-2.78 2.21-5.49 3.57-8.12 1.36-2.63 2.78-4.96 4.27-7s2.97-3.68 4.45-4.92c1.48-1.24 2.91-1.86 4.27-1.86.49 0 .88.19 1.16.56.28.37.42.83.42 1.39 0 1.11-.46 2.46-1.39 4.04s-1.96 3.15-3.11 4.73-2.18 3.03-3.11 4.36c-.93 1.33-1.39 2.33-1.39 3.01 0 .62.53.93 1.58.93 1.79 0 3.9-.4 6.31-1.21 2.41-.8 4.71-1.81 6.91-3.01 2.19-1.21 4.1-2.5 5.71-3.9 1.61-1.39 2.56-2.67 2.88-3.85 0-.93-.29-1.99-.88-3.2s-1.35-2.44-2.27-3.71c-.93-1.27-1.96-2.52-3.11-3.76a46.008 46.008 0 0 0-3.39-3.34c-1.11-.99-2.15-1.78-3.11-2.37-.96-.59-1.72-.88-2.27-.88-3.71 0-7.36.59-10.95 1.76-3.59 1.18-6.96 2.78-10.11 4.82s-6.08 4.47-8.77 7.28a50.65 50.65 0 0 0-6.91 9.04c-1.92 3.22-3.42 6.6-4.5 10.16-.27.88-.5 1.77-.71 2.65-2.41 2.04-5.16 4.22-8.25 6.53a99.858 99.858 0 0 1-9.37 6.26c1.61-2.04 2.74-4.34 3.39-6.91.65-2.57.97-4.84.97-6.82 0-3.28-.2-6.17-.6-8.67s-.77-4.87-1.11-7.1-.53-4.48-.56-6.77c-.03-2.29.32-4.85 1.07-7.7 0-.25-.57-.94-1.72-2.09-1.14-1.14-2.46-2.4-3.94-3.76-1.48-1.36-2.97-2.64-4.45-3.85s-2.6-2.03-3.34-2.46c-.5 0-1.05.43-1.67 1.3-.62.87-1.25 1.95-1.9 3.25-.65 1.3-1.24 2.74-1.76 4.31s-.91 3.08-1.16 4.5c-.93 2.72-2.18 5.26-3.76 7.61-1.58 2.35-3.28 4.55-5.1 6.59s-3.65 3.93-5.47 5.66c-1.82 1.73-3.45 3.28-4.87 4.64l4.45 4.55c1.11-.99 2.37-2.12 3.76-3.39 1.39-1.27 2.78-2.57 4.17-3.9 1.39-1.33 2.77-2.67 4.13-4.04s2.57-2.66 3.62-3.9c.31 2.29.59 4.65.83 7.1.25 2.44.37 4.96.37 7.56 0 1.79-.15 3.5-.46 5.1-.31 1.61-.8 3.03-1.48 4.27-.68 1.24-1.53 2.23-2.55 2.97-1.02.74-2.24 1.11-3.66 1.11-2.6 0-4.45-.28-5.57-.83s-1.86-.83-2.23-.83c-.19 0-.45.17-.79.51-.34.34-.68.73-1.02 1.16-.34.43-.63.85-.88 1.25s-.37.67-.37.79c.25.93 1.08 2.07 2.5 3.43 1.42 1.36 3.09 2.66 5.01 3.9 1.92 1.24 3.96 2.29 6.12 3.15 2.16.87 4.14 1.3 5.94 1.3 2.1 0 4.36-.43 6.77-1.3 2.41-.87 4.92-2.04 7.51-3.53s5.23-3.18 7.89-5.1c2.66-1.92 5.27-3.93 7.84-6.03.27-.22.54-.45.81-.68.03.84.08 1.56.17 2.16.12.87.37 1.64.74 2.32.93 1.79 2.09 3.51 3.48 5.15 1.39 1.64 2.83 3.06 4.31 4.27s2.94 2.16 4.36 2.88c1.42.71 2.69 1.07 3.8 1.07 5.69 0 11.15-.79 16.38-2.37s10.22-3.71 14.98-6.4c4.65-2.63 9.08-5.71 13.29-9.22-.16.62-.3 1.21-.39 1.75-.37 2.1-.56 3.34-.56 3.71 0 1.3.36 2.6 1.07 3.9s1.56 2.46 2.55 3.48c.99 1.02 1.99 1.84 3.02 2.46 1.02.62 1.84.93 2.46.93h.56c.19 0 .43-.06.74-.19 2.6-.87 5.43-2.15 8.49-3.85 3.06-1.7 6.11-3.6 9.14-5.71a108.3 108.3 0 0 0 8.67-6.68c2.75-2.35 5.15-4.61 7.19-6.77-.74 2.41-1.3 4.44-1.67 6.08-.37 1.64-.62 3.03-.74 4.17-.12 1.15-.17 2.07-.14 2.78s.05 1.31.05 1.81c0 1.3.37 2.47 1.11 3.53.74 1.05 1.67 1.96 2.78 2.74 1.11.77 2.33 1.38 3.66 1.81 1.33.43 2.55.65 3.66.65 1.61 0 3.49-.51 5.66-1.53 2.16-1.02 4.45-2.34 6.87-3.94 2.41-1.61 4.88-3.45 7.42-5.52a260.352 260.352 0 0 0 9.87-8.48l-.12.51c-.62 2.63-1.1 4.81-1.44 6.54-.34 1.73-.51 2.78-.51 3.15 1.11 1.18 2.37 2.35 3.76 3.53 1.39 1.17 2.78 2.24 4.18 3.2 1.39.96 2.75 1.73 4.08 2.32 1.33.59 2.52.88 3.57.88.87 0 1.45-.25 1.76-.74.31-.5.65-1.18 1.02-2.04 2.97-6.99 6-13.03 9.09-18.14 3.09-5.1 6.03-9.46 8.81-13.08s5.27-6.59 7.47-8.91 3.88-4.19 5.06-5.61l.19-.19a334.61 334.61 0 0 0-3.48 9.14c-1.21 3.31-2.37 6.65-3.48 10.02-1.11 3.37-2.15 6.67-3.11 9.88-.96 3.22-1.72 6.09-2.27 8.63 0 1.11.46 2.26 1.39 3.43.93 1.18 2.05 2.24 3.38 3.2s2.71 1.76 4.13 2.41c1.42.65 2.6.97 3.53.97 1.42 0 3.19-.5 5.29-1.48 2.1-.99 4.36-2.29 6.77-3.9 2.41-1.61 4.9-3.43 7.47-5.47 2.03-1.61 3.98-3.23 5.9-4.84v.48c0 1.36.59 3 1.76 4.92 1.18 1.92 2.64 3.76 4.41 5.52 1.76 1.76 3.66 3.26 5.71 4.5 2.04 1.24 3.9 1.86 5.57 1.86 3.96 0 8.03-.5 12.2-1.48 4.17-.99 8.55-2.63 13.13-4.92s9.38-5.32 14.43-9.09c1.24-.93 2.51-1.92 3.79-2.95-.25.86-.46 1.67-.59 2.4-.37 2.1-.56 3.34-.56 3.71 0 1.3.36 2.6 1.07 3.9s1.56 2.46 2.55 3.48c.99 1.02 1.99 1.84 3.02 2.46 1.02.62 1.84.93 2.46.93h.56c.19 0 .43-.06.74-.19 2.6-.87 5.43-2.15 8.49-3.85 3.06-1.7 6.11-3.6 9.14-5.71a108.3 108.3 0 0 0 8.67-6.68c2.75-2.35 5.15-4.61 7.19-6.77-.74 2.41-1.3 4.44-1.67 6.08-.37 1.64-.62 3.03-.74 4.17-.12 1.15-.17 2.07-.14 2.78s.05 1.31.05 1.81c0 1.3.37 2.47 1.11 3.53.74 1.05 1.67 1.96 2.78 2.74 1.11.77 2.33 1.38 3.66 1.81 1.33.43 2.55.65 3.66.65 1.61 0 3.49-.51 5.66-1.53 2.16-1.02 4.45-2.34 6.87-3.94 2.41-1.61 4.88-3.45 7.42-5.52 2.54-2.07 4.99-4.16 7.38-6.26l1.08-.96c-.53 2.28-.96 4.22-1.26 5.78-.34 1.73-.51 2.78-.51 3.15 1.11 1.18 2.37 2.35 3.76 3.53 1.39 1.17 2.78 2.24 4.18 3.2 1.39.96 2.75 1.73 4.08 2.32 1.33.59 2.52.88 3.57.88 1.36 0 2.23-.65 2.6-1.95 2.35-5.94 4.85-11.26 7.51-15.96 2.66-4.7 5.26-8.83 7.79-12.38 2.54-3.56 4.92-6.59 7.14-9.09s4.08-4.56 5.57-6.17c-1.55 4.45-2.94 8.78-4.18 12.99-1.24 4.21-2.3 8.01-3.2 11.41-.9 3.4-1.58 6.2-2.04 8.4-.46 2.2-.7 3.51-.7 3.94a19.4 19.4 0 0 0 3.57 3.15c1.27.87 2.5 1.59 3.71 2.18 1.21.59 2.35 1.02 3.43 1.3s2 .42 2.74.42c1.42 0 2.32-.62 2.69-1.86 2.97-7.3 5.94-13.48 8.91-18.55 2.97-5.07 5.75-9.32 8.35-12.76s4.92-6.2 6.96-8.3c2.04-2.1 3.68-3.9 4.92-5.38-1.11 2.78-2.27 5.81-3.48 9.09-1.21 3.28-2.37 6.6-3.48 9.97-1.11 3.37-2.13 6.67-3.06 9.88-.93 3.22-1.67 6.09-2.23 8.63 0 1.11.46 2.26 1.39 3.43.93 1.18 2.04 2.24 3.34 3.2 1.3.96 2.66 1.76 4.08 2.41 1.42.65 2.6.97 3.53.97 1.48 0 3.28-.5 5.38-1.48 2.1-.99 4.36-2.29 6.77-3.9 2.41-1.61 4.9-3.43 7.47-5.47 2.03-1.61 3.98-3.23 5.9-4.84v.48c0 1.36.59 3 1.76 4.92 1.18 1.92 2.64 3.76 4.41 5.52 1.76 1.76 3.66 3.26 5.71 4.5 2.04 1.24 3.9 1.86 5.57 1.86 3.96 0 8.03-.5 12.2-1.48 4.17-.99 8.55-2.63 13.13-4.92s9.38-5.32 14.43-9.09c5.04-3.77 10.4-8.44 16.1-14.01l-4.54-4.55c-3.03 2.85-6.09 5.66-9.19 8.44Zm-31.73-12.38c1.36-2.81 2.78-5.3 4.27-7.47 1.48-2.16 2.97-3.91 4.45-5.24s2.84-2 4.08-2c.68 0 1.19.22 1.53.65.34.43.51.93.51 1.48 0 1.92-.53 3.84-1.58 5.75-1.05 1.92-2.45 3.79-4.18 5.61-1.73 1.82-3.7 3.57-5.89 5.24s-4.44 3.25-6.73 4.73c.99-3.03 2.16-5.95 3.53-8.77Zm-246.04 0c1.36-2.81 2.78-5.3 4.27-7.47 1.48-2.16 2.97-3.91 4.45-5.24s2.84-2 4.08-2c.68 0 1.19.22 1.53.65.34.43.51.93.51 1.48 0 1.92-.53 3.84-1.58 5.75-1.05 1.92-2.45 3.79-4.18 5.61-1.73 1.82-3.7 3.57-5.89 5.24s-4.44 3.25-6.73 4.73c.99-3.03 2.16-5.95 3.53-8.77ZM909.97 1006.48c-1.52-1.76-3.36-3.63-5.52-5.61-2.17-1.98-4.53-3.9-7.1-5.75s-5.06-3.28-7.47-4.27c-3.53 13.11-6.66 24.71-9.42 34.79-2.75 10.08-5.29 19.02-7.61 26.81-2.32 7.79-4.48 14.64-6.49 20.55s-3.97 11.24-5.89 16c1.36 1.73 3.21 3.37 5.57 4.92 2.35 1.55 4.85 2.72 7.51 3.53 2.78-5.57 5.81-11.75 9.09-18.55 3.28-6.8 6.62-13.96 10.02-21.48 3.4-7.51 6.8-15.25 10.21-23.19 3.4-7.95 6.68-15.88 9.83-23.8-.31-.87-1.22-2.18-2.74-3.94ZM869.15 1113.63c-.65-.59-1.48-1.25-2.51-2-1.02-.74-2.16-1.53-3.43-2.37s-2.52-1.58-3.76-2.23c-1.24-.65-2.4-1.19-3.48-1.62-1.08-.43-1.93-.65-2.55-.65-.37 0-1.07.74-2.09 2.23-1.02 1.48-2.09 3.22-3.2 5.2a52.1 52.1 0 0 0-2.92 6.08c-.84 2.07-1.25 3.66-1.25 4.78 0 .25.36.62 1.07 1.11.71.5 1.59 1.05 2.64 1.67 1.05.62 2.23 1.27 3.53 1.95 1.3.68 2.54 1.28 3.71 1.81 1.17.52 2.23.96 3.15 1.3.93.34 1.54.51 1.86.51.49 0 1.31-.77 2.46-2.32 1.14-1.55 2.29-3.29 3.43-5.24s2.15-3.8 3.02-5.57c.87-1.76 1.3-2.89 1.3-3.39 0-.25-.33-.66-.97-1.25ZM414.58 244h-170v170h170V244Zm-40 130h-90v-90h90v90Z" fill="currentColor"></path><path d="M309.58 309h40v40h-40zM756.58 244h-170v170h170V244Zm-40 130h-90v-90h90v90Z" fill="currentColor"></path><path d="M651.58 309h40v40h-40zM414.58 586h-170v170h170V586Zm-40 130h-90v-90h90v90Z" fill="currentColor"></path><path d="M309.58 651h40v40h-40zM284.58 441h40v40h-40zM363.58 521v40h40v-40h-39v-40h-40v40h39zM524.58 321h40v40h-40zM444.58 284h40v77h-40zM484.58 244h40v40h-40zM524.58 361h-40v40h-40v40h80v-80zM484.58 561v39h40v39h80v-40h-80v-39h-40v-79h-40v80h40z" fill="currentColor"></path><path d="M524.58 441h40v80h-40zM644.58 560h112v-80h-40v-39h-73v40h-39v40h40v39Zm0-79h72v39h-72v-39ZM716.58 599h40v80h-40zM564.58 521h40v40h-40zM604.58 639h40v40h-40zM644.58 599h40v40h-40zM684.58 756v-37h32v-40h-72v77h40zM444.58 600h40v76h-40zM524.58 756v-40h39v40h40v-40h-39v-40h-80v80h40zM364.58 441h80v40h-80zM244.58 481h40v80h-40z" fill="currentColor"></path></symbol><symbol id="f-12" viewBox="0 0 1000 1300"><path d="M925.5 375.16V1225H75.67V375.16H925.5m5-40H70.67c-19.33 0-35 15.67-35 35V1230c0 19.33 15.67 35 35 35H930.5c19.33 0 35-15.67 35-35V370.16c0-19.33-15.67-35-35-35Z" fill="currentColor"></path><rect width="725.27" height="725.27" x="137.95" y="437.45" fill="#e5e7ef" rx="40" ry="40"></rect><rect width="931" height="217.16" x="34.5" y="35.14" rx="35" ry="35" fill="currentColor"></rect><path d="M848.49 249.3H741.86l26.66 35.33 26.65 35.34 26.66-35.34 26.66-35.33z" fill="currentColor"></path><path d="M414 541.5H244v170h170v-170Zm-40 130h-90v-90h90v90Z" fill="currentColor"></path><path d="M309 606.5h40v40h-40zM756 541.5H586v170h170v-170Zm-40 130h-90v-90h90v90Z" fill="currentColor"></path><path d="M651 606.5h40v40h-40zM414 883.5H244v170h170v-170Zm-40 130h-90v-90h90v90Z" fill="currentColor"></path><path d="M309 948.5h40v40h-40zM284 738.5h40v40h-40zM363 818.5v40h40v-40h-39v-40h-40v40h39zM524 618.5h40v40h-40zM444 581.5h40v77h-40zM484 541.5h40v40h-40zM524 658.5h-40v40h-40v40h80v-80zM484 858.5v39h40v39h80v-40h-80v-39h-40v-79h-40v80h40z" fill="currentColor"></path><path d="M524 738.5h40v80h-40zM644 857.5h112v-80h-40v-39h-73v40h-39v40h40v39Zm0-79h72v39h-72v-39ZM716 896.5h40v80h-40zM564 818.5h40v40h-40zM604 936.5h40v40h-40zM644 896.5h40v40h-40zM684 1053.5v-37h32v-40h-72v77h40zM444 897.5h40v76h-40zM524 1053.5v-40h39v40h40v-40h-39v-40h-80v80h40zM364 738.5h80v40h-80zM244 778.5h40v80h-40z" fill="currentColor"></path><text x="50%" y="174" fill="white" font-family="sans-serif" font-size="90" font-weight="600" text-anchor="middle">¡Escaneame!</text></symbol><symbol id="f-8" viewBox="0 0 1000 1300"><rect width="1000" height="1300" rx="40" style="fill: rgb(255, 255, 255);"></rect><rect width="780" height="780" x="110" y="110" rx="40" style="fill: rgb(229, 231, 239);"></rect><path d="M414 244H244v170h170Zm-40 130h-90v-90h90Z" fill="currentColor"></path><path d="M309 309h40v40h-40zM586 414h170V244H586Zm40-130h90v90h-90Z" fill="currentColor"></path><path d="M651 309h40v40h-40zM244 756h170V586H244Zm40-130h90v90h-90Z" fill="currentColor"></path><path d="M309 651h40v40h-40zM284 441h40v40h-40zM324 521h39v40h40v-40h-39v-40h-40v40zM524 321h40v40h-40zM444 284h40v77h-40zM484 244h40v40h-40zM484 361v40h-40v40h80v-80h-40zM484 561v39h40v39h80v-40h-80v-39h-40v-79h-40v80h40z" fill="currentColor"></path><path d="M524 441h40v80h-40zM716 441h-73v40h-39v40h40v39h112v-80h-40Zm0 79h-72v-39h72ZM716 599h40v80h-40zM564 521h40v40h-40zM604 639h40v40h-40zM644 599h40v40h-40zM684 756v-37h32v-40h-72v77h40zM444 600h40v76h-40zM524 756v-40h39v40h40v-40h-39v-40h-80v80h40zM364 441h80v40h-80zM244 481h40v80h-40zM542.65 1070.18q-7.39 0-11 4.58a16.86 16.86 0 0 0-3.13 7.62h26.54a17.07 17.07 0 0 0-2.81-8.15q-3.04-4.05-9.6-4.05ZM597.8 1091.81a46.46 46.46 0 0 0-4.95 1.27 15.66 15.66 0 0 0-3.55 1.75 7.59 7.59 0 0 0-2.23 2.3 5.93 5.93 0 0 0-.77 3 6.26 6.26 0 0 0 1 3.53 6.79 6.79 0 0 0 2.92 2.42 11.3 11.3 0 0 0 4.78.9 15.5 15.5 0 0 0 7-1.45 13.86 13.86 0 0 0 4.62-3.55 12.43 12.43 0 0 0 2.33-4 15.42 15.42 0 0 0 1.07-5.27c.05-1.19.09-2.22.11-3.14l-5.63.91c-2.6.52-4.84.95-6.7 1.33ZM748.5 1070.18q-7.41 0-11 4.58a16.87 16.87 0 0 0-3.14 7.62h26.54a17 17 0 0 0-2.8-8.15q-3.1-4.05-9.6-4.05ZM419.3 1091.81a46.46 46.46 0 0 0-4.95 1.27 15.66 15.66 0 0 0-3.55 1.75 7.43 7.43 0 0 0-2.22 2.3 5.84 5.84 0 0 0-.78 3 6.26 6.26 0 0 0 1 3.53 6.82 6.82 0 0 0 2.93 2.42 11.22 11.22 0 0 0 4.77.9 15.47 15.47 0 0 0 7-1.45 13.9 13.9 0 0 0 4.63-3.55 12.38 12.38 0 0 0 2.32-4 15.66 15.66 0 0 0 1.08-5.27c.05-1.19.08-2.22.1-3.14l-5.63.91q-3.9.76-6.7 1.33Z" fill="currentColor"></path><path d="M940 0H60A60 60 0 0 1 0 60v1180a60 60 0 0 1 60 60h880a60 60 0 0 1 60-60V60a60 60 0 0 1-60-60ZM890 850a40 40 0 0 1-40 40H150a40 40 0 0 1-40-40V150a40 40 0 0 1 40-40h700a40 40 0 0 1 40 40Z" fill="currentColor"></path><text x="50%" y="1115" fill="white" font-family="sans-serif" font-size="100" font-weight="600" text-anchor="middle">¡Escaneame!</text></symbol><symbol id="f-26" viewBox="0 0 1000 1300"><path d="M885.64 285.59a14.464 14.464 0 0 1-2.93-.29c-.48-.1-.96-.22-1.42-.36-.47-.14-.93-.31-1.39-.49-.45-.19-.89-.4-1.32-.63-.43-.23-.86-.48-1.27-.75-.4-.28-.8-.57-1.18-.88-.38-.31-.75-.64-1.1-.99-.34-.35-.67-.71-.99-1.09-.31-.38-.6-.78-.87-1.19-.27-.4-.52-.83-.75-1.26-.23-.43-.44-.88-.63-1.33-.19-.45-.35-.91-.5-1.38-.14-.47-.26-.95-.36-1.42-.09-.48-.17-.97-.21-1.46-.05-.49-.08-.99-.08-1.47s.03-.99.08-1.48c.04-.49.12-.97.21-1.46.1-.47.22-.95.36-1.42.15-.47.31-.93.5-1.38.19-.45.4-.9.63-1.33.23-.43.48-.85.75-1.26.27-.41.56-.81.87-1.18.32-.39.65-.75.99-1.1 2.8-2.79 6.66-4.4 10.61-4.4s7.82 1.61 10.61 4.4c.34.35.68.71.99 1.1.31.37.6.77.87 1.18.27.41.53.83.75 1.26.23.43.44.88.63 1.33.19.45.36.91.5 1.38.14.47.26.95.36 1.42.09.49.17.97.22 1.46.05.49.07.99.07 1.48s-.02.98-.07 1.47-.13.98-.22 1.46c-.1.47-.22.95-.36 1.42-.14.47-.31.93-.5 1.38-.19.45-.4.9-.63 1.33-.22.43-.48.86-.75 1.26-.27.41-.56.81-.87 1.19-.31.38-.65.74-.99 1.09-.35.35-.72.68-1.1.99-.38.31-.77.6-1.18.88-.41.27-.83.52-1.26.75-.44.23-.88.44-1.33.63-.45.18-.92.35-1.38.49-.47.14-.95.26-1.43.36-.48.1-.97.17-1.45.22-.49.05-.99.07-1.48.07Z" fill="currentColor"></path><path fill="#585858" d="M398.39 467.81c-9.28 0-17.59-6.49-19.56-15.93L308.98 116.3c-3.55-15.44-15.08-28.1-30.13-33.06a.487.487 0 0 1-.11-.04L148.13 39.32c-10.47-3.52-16.11-14.86-12.59-25.33 3.52-10.47 14.86-16.1 25.33-12.59l130.55 43.86c28.33 9.36 50.03 33.25 56.61 62.35.03.11.05.23.07.34l69.88 335.77c2.25 10.81-4.69 21.41-15.5 23.66-1.37.29-2.75.42-4.1.42Z"></path><path d="M53.13 219.67H946.97c5.55.39 8.58 3.06 9.65 4.22 1.18 1.29 1.78 2.58 1.78 3.85-11.04 176.05-23.99 349.56-38.48 515.72v.09l-.02.09c-1.72 20.8-3.49 41.83-5.2 62.17-12.75 151.48-24.79 294.57-24.49 444.19-.07 5.98-3.56 9.96-5.87 9.99h-766.3c-4.13-.52-10.34-7.27-10.63-15.86v-.32l-.03-.32c-3.06-61.22-5.72-120.65-8.29-178.13-5.16-115.39-10.03-224.39-17.54-335.19-5.94-93.92-13.91-190.38-21.63-283.67-5.89-71.2-11.97-144.81-17.22-217.92.2-2.75 1.54-4.66 2.68-5.81 1.15-1.16 3.68-3.11 7.75-3.11m894.85-40H53.06c-28.03.05-50.57 22.33-50.38 50C14.89 400.1 31.2 567.58 41.64 732.78c11.26 166.06 16.64 329.85 25.79 512.7.97 28.81 23.14 53.5 49.43 54.51h767.61c25.35-.1 45.61-22.47 45.75-49.89-.34-168.56 15.48-332.56 29.55-503.17 14.8-169.67 27.85-345.95 38.59-517.27 1.16-26.43-21.31-48.84-50.38-50Z" fill="currentColor"></path><path d="m49.37 336.21 34.81 842.57c0 65.88 13.08 96.26 44.42 96.26h745.76c31.34 0 43.75-38.42 43.75-75.9l33.87-833.73s-84.54-21.01-202.49-12.66c-98.4 6.97-285.78 29.91-384.42 28.61-128.98-1.7-315.7-45.16-315.7-45.16ZM828.65 285.6H674.36c-8.28 0-15-6.72-15-15s6.72-15 15-15h154.29c8.28 0 15 6.72 15 15s-6.72 15-15 15Z" fill="currentColor"></path><rect width="654.98" height="654.98" x="173.18" y="444.77" fill="#e5e7ef" rx="40" ry="40"></rect><path d="M414 516.26H244v170h170v-170Zm-40 130h-90v-90h90v90Z" fill="currentColor"></path><path d="M309 581.26h40v40h-40zM756 516.26H586v170h170v-170Zm-40 130h-90v-90h90v90Z" fill="currentColor"></path><path d="M651 581.26h40v40h-40zM414 858.26H244v170h170v-170Zm-40 130h-90v-90h90v90Z" fill="currentColor"></path><path d="M309 923.26h40v40h-40zM284 713.26h40v40h-40zM363 793.26v40h40v-40h-39v-40h-40v40h39zM524 593.26h40v40h-40zM444 556.26h40v77h-40zM484 516.26h40v40h-40zM524 633.26h-40v40h-40v40h80v-80zM484 833.26v39h40v39h80v-40h-80v-39h-40v-79h-40v80h40z" fill="currentColor"></path><path d="M524 713.26h40v80h-40zM644 832.26h112v-80h-40v-39h-73v40h-39v40h40v39Zm0-79h72v39h-72v-39ZM716 871.26h40v80h-40zM564 793.26h40v40h-40zM604 911.26h40v40h-40zM644 871.26h40v40h-40zM684 1028.26v-37h32v-40h-72v77h40zM444 872.26h40v76h-40zM524 1028.26v-40h39v40h40v-40h-39v-40h-80v80h40zM364 713.26h80v40h-80zM244 753.26h40v80h-40z" fill="currentColor"></path><text x="50%" y="1228" fill="white" font-family="sans-serif" font-size="90" font-weight="600" text-anchor="middle">¡Escaneame!</text></symbol><symbol id="f-19" viewBox="0 0 1000 990"><path d="M805.5 96.15c5.51 0 10 4.49 10 10v621h-631v-621c0-5.51 4.49-10 10-10h611m0-30h-611c-22.09 0-40 17.91-40 40v651h691v-651c0-22.09-17.91-40-40-40Z" fill="currentColor"></path><rect width="534.28" height="534.28" x="232.86" y="144.51" fill="#e5e7ef" rx="20.95" ry="20.95"></rect><path fill="#585858" d="M154.5 789.86H0l58.69-98.25L0 593.36h154.5v196.5z"></path><path fill="#fff" d="M154.5 736.04V633.02s-53.2 20.93-53.2 48.5c0 54.51 53.2 54.51 53.2 54.51Z"></path><path fill="#585858" d="M845.5 789.86H1000l-58.69-98.25 58.69-98.25H845.5v196.5z"></path><path fill="#fff" d="M845.5 736.04V633.02s53.2 20.93 53.2 48.5c0 54.51-53.2 54.51-53.2 54.51Z"></path><path d="M101.3 681.69v-3.03c-.04 1.03-.03 2.04 0 3.03ZM101.3 678.61v.05-.05ZM898.7 678.66v3.03c.03-.99.04-1.99 0-3.03ZM898.7 806.14V681.69c-1.64 53.28-100.07 45.66-154.26 45.66H255.56c-54.18 0-152.62 7.62-154.26-45.66v124.44c0 .34-.03.68-.03 1.02v66.69c0 27.61 22.39 50 50 50h697.45c27.61 0 50-22.39 50-50v-66.69c0-.34-.02-.68-.03-1.02Z" fill="currentColor"></path><path d="M432.81 214.35H300v132.81h132.81V214.35Zm-31.25 101.56h-70.31V245.6h70.31v70.31Z" fill="currentColor"></path><path d="M350.78 265.13h31.25v31.25h-31.25zM700 214.35H567.19v132.81H700V214.35Zm-31.25 101.56h-70.31V245.6h70.31v70.31Z" fill="currentColor"></path><path d="M617.97 265.13h31.25v31.25h-31.25zM432.81 481.54H300v132.81h132.81V481.54ZM401.56 583.1h-70.31v-70.31h70.31v70.31Z" fill="currentColor"></path><path d="M350.78 532.32h31.25v31.25h-31.25zM331.25 368.26h31.25v31.25h-31.25zM392.97 430.76v31.25h31.25v-31.25h-30.47v-31.25H362.5v31.25h30.47zM518.75 274.51H550v31.25h-31.25zM456.25 245.6h31.25v60.16h-31.25zM487.5 214.35h31.25v31.25H487.5zM518.75 305.76H487.5v31.25h-31.25v31.25h62.5v-62.5zM487.5 462.01v30.47h31.25v30.46h62.5v-31.25h-62.5v-30.46H487.5v-61.72h-31.25v62.5h31.25z" fill="currentColor"></path><path d="M518.75 368.26H550v62.5h-31.25zM612.5 461.23H700v-62.5h-31.25v-30.47h-57.03v31.25h-30.47v31.25h31.25v30.47Zm0-61.72h56.25v30.47H612.5v-30.47ZM668.75 491.69H700v62.5h-31.25zM550 430.76h31.25v31.25H550zM581.25 522.94h31.25v31.25h-31.25zM612.5 491.69h31.25v31.25H612.5zM643.75 614.35v-28.91h25v-31.25H612.5v60.16h31.25zM456.25 492.48h31.25v59.38h-31.25zM518.75 614.35V583.1h30.47v31.25h31.25V583.1H550v-31.25h-62.5v62.5h31.25zM393.75 368.26h62.5v31.25h-62.5zM300 399.51h31.25v62.5H300z" fill="currentColor"></path><text x="50%" y="852" fill="white" font-family="sans-serif" font-size="90" font-weight="600" text-anchor="middle">¡Escaneame!</text></symbol><symbol id="f-23" viewBox="0 0 1000 990"><path d="M419.69 351.56v-78.1h-310.9c-13.8 0-26.37 8.67-31.27 21.56l-20.88 54.9H27.7c-15.27 0-27.7 12.43-27.7 27.7v39.07c0 15.27 12.43 27.7 27.7 27.7h13.76l38.62 545.62h343.54L385 444.39h25.3c15.27 0 27.7-12.43 27.7-27.7v-39.07c0-11.98-7.64-22.2-18.31-26.06ZM96.85 972l-37.3-527H367l37.3 527H96.85Zm-2.51-670.58c2.27-5.96 8.07-9.96 14.45-9.96h292.9v58.46H75.9l18.44-48.5ZM420 416.68c0 5.35-4.35 9.7-9.7 9.7H27.7c-5.35 0-9.7-4.35-9.7-9.7v-39.07c0-5.35 4.35-9.7 9.7-9.7h382.6c5.35 0 9.7 4.35 9.7 9.7v39.07Z" fill="currentColor"></path><path d="m428.73 810.69-14.32-201.38H34.28l14.33 201.38h380.12z" fill="currentColor"></path><path fill="#585858" d="M930.91 88.81c-1.02-17.33-14.96-30.89-31.88-30.99-76.95-.47-276.25-1.7-295.43-1.81s-.26 0-.75 0h-.75c-19.18.13-218.47 1.36-295.43 1.82-16.92.1-30.86 13.65-31.88 30.99l-51.03 866.22c-1.12 18.96 13.57 34.97 32.08 34.97h694.02c18.51 0 33.2-16.01 32.08-34.97L930.91 88.82Z" opacity="0.5"></path><path d="M948.91 88.81c-1.02-17.33-14.96-30.89-31.88-30.99-76.95-.47-276.25-1.7-295.43-1.81s-.26 0-.75 0h-.75c-19.18.13-218.47 1.36-295.43 1.82-16.92.1-30.86 13.65-31.88 30.99l-51.03 866.22c-1.12 18.96 13.57 34.97 32.08 34.97h694.02c18.51 0 33.2-16.01 32.08-34.97L948.91 88.82Z" fill="currentColor"></path><path fill="#585858" d="M288.32 164.84c2.84.75 5.81 1.16 8.88 1.16h649.01c2.47 0 4.87-.26 7.2-.76l-4.5-76.43c-1.02-17.33-14.96-30.89-31.88-30.99-76.95-.47-276.25-1.7-295.43-1.81s-.26 0-.75 0h-.75c-19.18.13-218.47 1.36-295.43 1.82-16.92.1-30.86 13.65-31.88 30.99l-4.48 76.03Z"></path><path d="M954.56 137H287.15c-15.79 0-28.59-13.14-28.59-29.34l7.12-95.83c.5-6.67 5.92-11.82 12.44-11.82h685.47c6.52 0 11.94 5.15 12.44 11.82l7.12 95.83c0 16.2-12.8 29.34-28.59 29.34Z" fill="currentColor"></path><rect width="544.47" height="544.47" x="349.53" y="244.52" fill="#e5e7ef" rx="20.95" ry="20.95"></rect><path d="M553.67 323H420.86v132.81h132.81V323Zm-31.25 101.56h-70.31v-70.31h70.31v70.31Z" fill="currentColor"></path><path d="M471.64 373.78h31.25v31.25h-31.25zM820.86 323H688.05v132.81h132.81V323Zm-31.25 101.56H719.3v-70.31h70.31v70.31Z" fill="currentColor"></path><path d="M738.82 373.78h31.25v31.25h-31.25zM553.67 590.19H420.86V723h132.81V590.19Zm-31.25 101.56h-70.31v-70.31h70.31v70.31Z" fill="currentColor"></path><path d="M471.64 640.97h31.25v31.25h-31.25zM452.11 476.91h31.25v31.25h-31.25zM513.82 539.41v31.25h31.25v-31.25h-30.46v-31.25h-31.25v31.25h30.46zM639.61 383.16h31.25v31.25h-31.25zM577.11 354.25h31.25v60.16h-31.25zM608.36 323h31.25v31.25h-31.25zM639.61 414.41h-31.25v31.25h-31.25v31.25h62.5v-62.5zM608.36 570.66v30.46h31.25v30.47h62.5v-31.25h-62.5v-30.46h-31.25v-61.72h-31.25v62.5h31.25z" fill="currentColor"></path><path d="M639.61 476.91h31.25v62.5h-31.25zM733.36 569.88h87.5v-62.5h-31.25v-30.47h-57.03v31.25h-30.47v31.25h31.25v30.47Zm0-61.72h56.25v30.47h-56.25v-30.47ZM789.61 600.34h31.25v62.5h-31.25zM670.86 539.41h31.25v31.25h-31.25zM702.11 631.59h31.25v31.25h-31.25zM733.36 600.34h31.25v31.25h-31.25zM764.61 723v-28.91h25v-31.25h-56.25V723h31.25zM577.11 601.12h31.25v59.38h-31.25zM639.61 723v-31.25h30.46V723h31.25v-31.25h-30.46V660.5h-62.5V723h31.25zM514.61 476.91h62.5v31.25h-62.5zM420.86 508.16h31.25v62.5h-31.25z" fill="currentColor"></path><text x="621" y="916" fill="white" font-family="sans-serif" font-size="90" font-weight="600" text-anchor="middle">¡Escaneame!</text></symbol><symbol id="f-27" viewBox="0 0 1000 1300"><ellipse cx="500" cy="77.66" fill="#585858" rx="84.18" ry="77.66"></ellipse><ellipse cx="500" cy="355.25" rx="431.82" ry="289.59" fill="currentColor"></ellipse><ellipse cx="500" cy="462.67" rx="449.3" ry="227.62" fill="currentColor"></ellipse><path d="M979.16 1103.64v-88.8l-957.45-9.33s-.88 58.47-.88 98.13c0 108.45 214.53 196.36 479.16 196.36s479.16-87.92 479.16-196.36Z" fill="currentColor"></path><ellipse cx="500" cy="966.52" fill="#585858" rx="500" ry="253.31"></ellipse><ellipse cx="500" cy="940.02" rx="449.3" ry="227.62" fill="currentColor"></ellipse><path fill="#fff" d="M847.48 955.96H152.52V301c0-22.09 17.91-40 40-40h614.96c22.09 0 40 17.91 40 40v654.96Z"></path><path d="M820.75 277.73c5.51 0 10 4.49 10 10v651.5h-661.5v-651.5c0-5.51 4.49-10 10-10h641.5m0-30h-641.5c-22.09 0-40 17.91-40 40v681.5h721.5v-681.5c0-22.09-17.91-40-40-40Z" fill="currentColor"></path><rect width="557.86" height="557.86" x="221.07" y="329.55" fill="#e5e7ef" rx="20.95" ry="20.95"></rect><path fill="#585858" d="M500 182.86c-276.14 0-500 113.41-500 253.31 0 68.08 53.01 129.87 139.25 175.39v-13.19c-55.63-37.89-88.55-84.85-88.55-135.7 0-125.71 201.16-227.62 449.3-227.62s449.3 101.91 449.3 227.62c0 50.85-32.92 97.81-88.55 135.7v13.19C946.99 566.05 1000 504.25 1000 436.17c0-139.9-223.86-253.31-500-253.31Z"></path><path d="M432.81 408.48H300v132.81h132.81V408.48Zm-31.25 101.56h-70.31v-70.31h70.31v70.31Z" fill="currentColor"></path><path d="M350.78 459.26h31.25v31.25h-31.25zM700 408.48H567.19v132.81H700V408.48Zm-31.25 101.56h-70.31v-70.31h70.31v70.31Z" fill="currentColor"></path><path d="M617.97 459.26h31.25v31.25h-31.25zM432.81 675.67H300v132.81h132.81V675.67Zm-31.25 101.56h-70.31v-70.31h70.31v70.31Z" fill="currentColor"></path><path d="M350.78 726.45h31.25v31.25h-31.25zM331.25 562.39h31.25v31.25h-31.25zM392.97 624.89v31.25h31.25v-31.25h-30.47v-31.25H362.5v31.25h30.47zM518.75 468.64H550v31.25h-31.25zM456.25 439.73h31.25v60.16h-31.25zM487.5 408.48h31.25v31.25H487.5zM518.75 499.89H487.5v31.25h-31.25v31.25h62.5v-62.5zM487.5 656.14v30.47h31.25v30.47h62.5v-31.25h-62.5v-30.47H487.5v-61.72h-31.25v62.5h31.25z" fill="currentColor"></path><path d="M518.75 562.39H550v62.5h-31.25zM612.5 655.36H700v-62.5h-31.25v-30.47h-57.03v31.25h-30.47v31.25h31.25v30.47Zm0-61.72h56.25v30.47H612.5v-30.47ZM668.75 685.83H700v62.5h-31.25zM550 624.89h31.25v31.25H550zM581.25 717.08h31.25v31.25h-31.25zM612.5 685.83h31.25v31.25H612.5zM643.75 808.48v-28.9h25v-31.25H612.5v60.15h31.25zM456.25 686.61h31.25v59.38h-31.25zM518.75 808.48v-31.25h30.47v31.25h31.25v-31.25H550v-31.25h-62.5v62.5h31.25zM393.75 562.39h62.5v31.25h-62.5zM300 593.64h31.25v62.5H300z" fill="currentColor"></path><text x="50%" y="1056" fill="white" font-family="sans-serif" font-size="90" font-weight="600" text-anchor="middle">¡Escaneame!</text></symbol><symbol id="f-15" viewBox="0 0 1000 1300"><rect width="723.82" height="723.82" x="138.09" y="276.19" fill="#e5e7ef" rx="34.48" ry="34.48"></rect><path d="M968.07 240.07c0-38.68-31.36-70.04-70.04-70.04H101.97c-38.68 0-70.04 31.36-70.04 70.04L0 1229.1c0 38.68 31.36 70.04 70.04 70.04h859.92c38.68 0 70.04-31.36 70.04-70.04l-31.93-989.03Zm-894.64 0c0-15.74 12.8-28.54 28.54-28.54h796.06c15.74 0 28.54 12.8 28.54 28.54v824.59H73.43V240.07Z" fill="currentColor"></path><path d="m352.81.85-79.74 78.98v167.99h79.74V.85zM647.19.85l79.74 78.98v167.99h-79.74V.85z" fill="currentColor"></path><path fill="currentColor" d="M352.81 80.6V.85h294.37V80.6z"></path><path d="M418 382H248v170h170V382Zm-40 130h-90v-90h90v90Z" fill="currentColor"></path><path d="M313 447h40v40h-40zM760 382H590v170h170V382Zm-40 130h-90v-90h90v90Z" fill="currentColor"></path><path d="M655 447h40v40h-40zM418 724H248v170h170V724Zm-40 130h-90v-90h90v90Z" fill="currentColor"></path><path d="M313 789h40v40h-40zM288 579h40v40h-40zM367 659v40h40v-40h-39v-40h-40v40h39zM528 459h40v40h-40zM448 422h40v77h-40zM488 382h40v40h-40zM528 499h-40v40h-40v40h80v-80zM488 699v39h40v39h80v-40h-80v-39h-40v-79h-40v80h40z" fill="currentColor"></path><path d="M528 579h40v80h-40zM648 698h112v-80h-40v-39h-73v40h-39v40h40v39Zm0-79h72v39h-72v-39ZM720 737h40v80h-40zM568 659h40v40h-40zM608 777h40v40h-40zM648 737h40v40h-40zM688 894v-37h32v-40h-72v77h40zM448 738h40v76h-40zM528 894v-40h39v40h40v-40h-39v-40h-80v80h40zM368 579h80v40h-80zM248 619h40v80h-40z" fill="currentColor"></path><text x="50%" y="1218" fill="white" font-family="sans-serif" font-size="100" font-weight="600" text-anchor="middle">¡Escaneame!</text></symbol></defs><use id="frame-9" href="#f-9" class="f" /><use id="frame-9-blue" href="#f-9" class="f blue" /><use id="frame-24" href="#f-24" class="f" /><use id="frame-24-blue" href="#f-24" class="f blue" /><use id="frame-7" href="#f-7" class="f" /><use id="frame-7-blue" href="#f-7" class="f blue" /><use id="frame-25" href="#f-25" class="f" /><use id="frame-25-blue" href="#f-25" class="f blue" /><use id="frame-17" href="#f-17" class="f" /><use id="frame-17-blue" href="#f-17" class="f blue" /><use id="frame-10" href="#f-10" class="f" /><use id="frame-10-blue" href="#f-10" class="f blue" /><use id="frame-16" href="#f-16" class="f" /><use id="frame-16-blue" href="#f-16" class="f blue" /><use id="frame-14" href="#f-14" class="f" /><use id="frame-14-blue" href="#f-14" class="f blue" /><use id="frame-12" href="#f-12" class="f" /><use id="frame-12-blue" href="#f-12" class="f blue" /><use id="frame-8" href="#f-8" class="f" /><use id="frame-8-blue" href="#f-8" class="f blue" /><use id="frame-26" href="#f-26" class="f" /><use id="frame-26-blue" href="#f-26" class="f blue" /><use id="frame-19" href="#f-19" class="f" /><use id="frame-19-blue" href="#f-19" class="f blue" /><use id="frame-23" href="#f-23" class="f" /><use id="frame-23-blue" href="#f-23" class="f blue" /><use id="frame-27" href="#f-27" class="f" /><use id="frame-27-blue" href="#f-27" class="f blue" /><use id="frame-15" href="#f-15" class="f" /><use id="frame-15-blue" href="#f-15" class="f blue" /></svg>